/* XPM */
static char * 000_xpm[] = {
"51 57 127 2",
"  	c None",
". 	c #F11A00",
"+ 	c #ED2100",
"@ 	c #EF2604",
"# 	c #F12B0A",
"$ 	c #F02908",
"% 	c #ED2000",
"& 	c #F12A09",
"* 	c #B04D00",
"= 	c #D16626",
"- 	c #F27D3A",
"; 	c #E67533",
"> 	c #AF4C00",
", 	c #E87634",
"' 	c #B9540F",
") 	c #EF7B38",
"! 	c #EE7B38",
"~ 	c #C55D1C",
"{ 	c #B14E02",
"] 	c #EE7A38",
"^ 	c #F07C39",
"/ 	c #F37E3B",
"( 	c #C75F1E",
"_ 	c #F37E3A",
": 	c #F47E3B",
"< 	c #F37D3A",
"[ 	c #AD4B00",
"} 	c #E87635",
"| 	c #C05A17",
"1 	c #C05917",
"2 	c #D86B2B",
"3 	c #F07B39",
"4 	c #E77534",
"5 	c #C85F1E",
"6 	c #C35C1A",
"7 	c #BE5816",
"8 	c #B55108",
"9 	c #B95410",
"0 	c #C65E1D",
"a 	c #D16625",
"b 	c #BF5816",
"c 	c #B45006",
"d 	c #CE6423",
"e 	c #CD6323",
"f 	c #D76A2A",
"g 	c #DB6D2C",
"h 	c #EB7836",
"i 	c #B6520A",
"j 	c #B24E03",
"k 	c #E17130",
"l 	c #C15A18",
"m 	c #E37231",
"n 	c #E77533",
"o 	c #F27133",
"p 	c #ED7333",
"q 	c #AE4C00",
"r 	c #AF4B00",
"s 	c #F21100",
"t 	c #F11300",
"u 	c #D63500",
"v 	c #B14D00",
"w 	c #F21800",
"x 	c #D73800",
"y 	c #B64B00",
"z 	c #C04600",
"A 	c #F11900",
"B 	c #F21900",
"C 	c #BE4700",
"D 	c #C14500",
"E 	c #EF1D00",
"F 	c #EE1F00",
"G 	c #AF4D00",
"H 	c #AE4E00",
"I 	c #F11600",
"J 	c #BD4700",
"K 	c #D73700",
"L 	c #E62A00",
"M 	c #E62C01",
"N 	c #F27234",
"O 	c #F15725",
"P 	c #F13B14",
"Q 	c #E83F12",
"R 	c #E32D00",
"S 	c #AF4E00",
"T 	c #D26726",
"U 	c #EC7936",
"V 	c #E03000",
"W 	c #F11D02",
"X 	c #F27E3A",
"Y 	c #F2602A",
"Z 	c #F14118",
"` 	c #F13D16",
" .	c #DA6C2C",
"..	c #EB7936",
"+.	c #E02F00",
"@.	c #F11E02",
"#.	c #F27F3B",
"$.	c #F2612A",
"%.	c #F27E3B",
"&.	c #AD4D00",
"*.	c #DA6C2B",
"=.	c #EF7B39",
"-.	c #EB4115",
";.	c #F11B01",
">.	c #F15423",
",.	c #F15323",
"'.	c #F12E0C",
").	c #F02505",
"!.	c #DB6E2D",
"~.	c #E97735",
"{.	c #F14A1E",
"].	c #F12808",
"^.	c #F27A39",
"/.	c #F2642C",
"(.	c #F13C15",
"_.	c #F12305",
":.	c #F2652D",
"<.	c #F27435",
"[.	c #F27636",
"}.	c #F10C00",
"|.	c #F11400",
"1.	c #F11800",
"2.	c #F2632B",
"3.	c #F2632C",
"4.	c #F27536",
"5.	c #F11500",
"6.	c #F25F29",
"                                                                                                      ",
"                                                                                                      ",
"                                      . . . . . . . . . . . . .                                       ",
"                                      . . . . . . . . . . . . .                                       ",
"                                      . . . . . . . . . . . . .                                       ",
"                                  . . . . . . . . . . . . . . . . . . . . . . .                       ",
"                                  . . . . . . . . . . . . . . . . . . . . . . .                       ",
"                                  + + + + + + + @ # # # # $ % % $ # & . . . . .                       ",
"                                  * * * * * * * = - - - - ; > > , - -                                 ",
"                                  * * * * * * * = - - - - ; > > , - -                                 ",
"                                  * * * * * * * = - - - - ; > > , - -                                 ",
"                            * * ' ) ! ~ * { ) ] ^ - - - - ; > > , - - - - - - -                       ",
"                            * * ' / - ( * { _ - - - - - - ; > > , - - - - - - -                       ",
"                            * * ' / - ( * { : / < - - - - ; [ [ } / / - - - - -                       ",
"                            * * ' / - ( * * | 1 2 - - - - 3 ; 4 5 1 6 _ - - - - - - -                 ",
"                            * * ' / - ( * * * * = - - - - - - < 7 * 8 / - - - - - - -                 ",
"                            * * 9 : / 0 > > > > a - - - - - _ : b * 8 : _ _ _ _ - - -                 ",
"                            * * c d e f g g g g ; - - - - h e d i * j d e e e e                       ",
"                            * * * * > k - - - - - - - - - ; > * * * * * * * * *                       ",
"                            * * * * * k - - - - - - - - - ; > * * * * * * * * *                       ",
"                            * * * * > ; - - - - - - - - - h e e e e e e e l * *                       ",
"                                      - - - - - - - - - - - _ _ _ _ _ _ _                             ",
"                                      - - - - - - - - - - - - - - - - - -                             ",
"                                      m ; n o o p ; ; ; ; ; ; ; 3 - - - -                             ",
"                                  * * > q r s t u q q q q q q q                                       ",
"                                  * * * * v w . x * * * * * * *                                       ",
"                                  * * * * v w . x * * * * v y y                                       ",
"                            * * * * * * * v w . x * * * * z A B C * * * * * * *                       ",
"                            * * * * * * * v w . x * * * * z B B C * * * * * * *                       ",
"                            * * * * * * * v w . x * * * * D B B C * * * * * * *                       ",
"                  * * * * * * * * * * * * v w . E + + + + F . B C * * * * * * * * * *                 ",
"                  * * * * * * * * * * * * v w . . . . . . . . B C * * * * * * * * * *                 ",
"                  q q q q q q q > * * G H G s t I . . . . A t s J H H * * > q q q q q                 ",
"                  ; ; ; ; ; ; ; k > * K L M N o O . . . . P N N Q L R S * T ; ; ; ; ;                 ",
"                  - - - - - - - U q * V . W X - Y . . . . Z X X ` . F H *  .- - - - -                 ",
"                  - - - - - - - ..[ q +.. @.#.X $.. . . . Z %.#.` . F &.> *.- - - - -                 ",
"                  - - - - - - - =.g g -.. ;.>.,.Z . . . . '.>.>.# . ).!.g ~.- - - - -                 ",
"                  - - - - - - - - - - {.. . A A A . . . . . A A . . ].%.- - - - - - -                 ",
"                  - - - - - - - - - - {.. . . . . . . . . . . . . . ].%.- - - - - - -                 ",
"                  - - - - - - - ^././.(.. . . . . . . . . . . . . . _.:./.<.- - - - -                 ",
"                  - - - - - - - [.}.|.1.. . . . . . . . . . . . . . . |.|.2.- - - - -                 ",
"                  - - - - - - - [.|.. . . . . . . . . . . . . . . . . . . 3.- - - - -                 ",
"                  - - - - - - - 4.5.. . . . . . . . . . . . . . . . . . . 6.- - - - -                 ",
"                                  . . . . . . . .           . . . . . . .                             ",
"                                  . . . . . . . .           . . . . . . .                             ",
"                                  % + + + % . . .           . . F + + + +                             ",
"                            * * * * * * * *                     * * * * * * * *                       ",
"                            * * * * * * * *                     * * * * * * * *                       ",
"                            * * * * * * * *                     * * * * * * * *                       ",
"                  * * * * * * * * * * * * *                     * * * * * * * * * * *                 ",
"                  * * * * * * * * * * * * *                     * * * * * * * * * * *                 ",
"                  * * * * * * * * * * * * *                     * * * * * * * * * * *                 ",
"                                                                                                      ",
"                                                                                                      ",
"                                                                                                      ",
"                                                                                                      ",
"                                                                                                      "};
