/* XPM */
static char * 004_xpm[] = {
"51 57 114 2",
"  	c None",
". 	c #F11A00",
"+ 	c #E42D00",
"@ 	c #E32C00",
"# 	c #F04319",
"$ 	c #F1441A",
"% 	c #ED3E14",
"& 	c #ED3D13",
"* 	c #F12103",
"= 	c #AE4E00",
"- 	c #AD4C00",
"; 	c #EF7C39",
"> 	c #F27E3B",
", 	c #E07230",
"' 	c #AD4D00",
") 	c #AE4D00",
"! 	c #DE702F",
"~ 	c #B04D00",
"{ 	c #AE4C00",
"] 	c #EF7B38",
"^ 	c #F27D3A",
"/ 	c #E07130",
"( 	c #AF4C00",
"_ 	c #DE6F2E",
": 	c #BA5510",
"< 	c #B7520B",
"[ 	c #B7520C",
"} 	c #B9540E",
"| 	c #B6520B",
"1 	c #F47E3B",
"2 	c #F37E3A",
"3 	c #DF702F",
"4 	c #E17130",
"5 	c #F37E3B",
"6 	c #F07B39",
"7 	c #EF7B39",
"8 	c #B34F05",
"9 	c #DD6F2E",
"0 	c #B14E01",
"a 	c #B14E02",
"b 	c #F17D3A",
"c 	c #CA6120",
"d 	c #AF4D00",
"e 	c #EE7A38",
"f 	c #B04D01",
"g 	c #B6510A",
"h 	c #B55109",
"i 	c #CB6221",
"j 	c #EE7B38",
"k 	c #E27230",
"l 	c #B55108",
"m 	c #B24F03",
"n 	c #B7530C",
"o 	c #AE4B00",
"p 	c #E97735",
"q 	c #C65E1D",
"r 	c #C55E1D",
"s 	c #E5501D",
"t 	c #F1491D",
"u 	c #EF4A1D",
"v 	c #D76A2A",
"w 	c #E03000",
"x 	c #EE2000",
"y 	c #AF4E00",
"z 	c #AD4E00",
"A 	c #BE5815",
"B 	c #F01D00",
"C 	c #D73700",
"D 	c #D83700",
"E 	c #CC3F00",
"F 	c #B45006",
"G 	c #F37D3A",
"H 	c #C55D1C",
"I 	c #F11900",
"J 	c #DF3000",
"K 	c #D96B2B",
"L 	c #CE6423",
"M 	c #CE6424",
"N 	c #B24F04",
"O 	c #F11800",
"P 	c #F15222",
"Q 	c #F15423",
"R 	c #E72900",
"S 	c #CD3E00",
"T 	c #CE3E00",
"U 	c #B34C00",
"V 	c #DB6D2C",
"W 	c #DA6D2C",
"X 	c #F11300",
"Y 	c #F27A39",
"Z 	c #F27E3A",
"` 	c #F21800",
" .	c #F31600",
"..	c #B64A00",
"+.	c #C45D1B",
"@.	c #F11400",
"#.	c #F27A38",
"$.	c #C34400",
"%.	c #E42C00",
"&.	c #F11500",
"*.	c #F26B30",
"=.	c #F26E32",
"-.	c #B84A00",
";.	c #C35C1A",
">.	c #E47332",
",.	c #E37332",
"'.	c #EC7936",
").	c #EF1E00",
"!.	c #F11B00",
"~.	c #B54B00",
"{.	c #B44C00",
"].	c #EF1D00",
"^.	c #BB4800",
"/.	c #BC4800",
"                                                                                                      ",
"                                                                                                      ",
"                                                                                                      ",
"                                                                                                      ",
"                                                                                                      ",
"                                      . . . . . . . . . . . . .                                       ",
"                                      . . . . . . . . . . . . .                                       ",
"                                      . . . . . . . . . . . . .                                       ",
"                                    . . . . . . . . . . . . . . .                                     ",
"                                . . . . . . . . . . . . . . . . . . . . . . . . .                     ",
"                                . . . . . . . . . . . . . . . . . . . . . . . . .                     ",
"                                + + + + + + + @ # $ $ $ $ % @ @ & $ $ * . . . . .                     ",
"                                = = = = = = = - ; > > > > , ' ) ! > >                                 ",
"                                ~ ~ ~ ~ ~ ~ ~ { ] ^ ^ ^ ^ / ( ( _ ^ ^                                 ",
"                                : : < ~ ~ [ : } ] ^ ^ ^ ^ / ( ( _ ^ ^                                 ",
"                          ~ ~ | 1 2 3 ( ( 4 2 2 ^ ^ ^ ^ ^ / ( ( _ ^ ^ ^ ^ ^ ^ ^ ^                     ",
"                          ~ ~ | 5 ^ _ ( ( / ^ ^ ^ ^ ^ ^ ^ / ( ( _ ^ ^ ^ ^ ^ ^ ^ ^                     ",
"                          ~ ~ | 5 ^ _ ( ( ! 6 7 ^ ^ ^ ^ ^ 4 8 8 9 6 7 ^ ^ ^ ^ ^ ^                     ",
"                          ~ ~ | 5 ^ _ ( ~ 0 a ~ ] ^ ^ ^ ^ ^ b ^ c a d e ^ ^ ^ ^ ^ ^ ^                 ",
"                          ~ ~ | 5 ^ _ ( ~ ~ ~ { ] ^ ^ ^ ^ ^ ^ ^ c ~ { e ^ ^ ^ ^ ^ ^ ^                 ",
"                          ~ ~ | 5 ^ _ d ~ ~ ~ ( ] ^ ^ ^ ^ ^ ^ ^ c ~ { e ^ ^ ^ ^ ^ ^ ^                 ",
"                          ~ ~ f g h i ] j j j e ^ ^ ^ ^ ^ k l h m ~ ~ h h h h h n                     ",
"                          ~ ~ ~ ~ ~ c ^ ^ ^ ^ ^ ^ ^ ^ ^ ^ / ( ~ ~ ~ ~ ~ ~ ~ ~ ~ ~                     ",
"                          ~ ~ ~ ~ ~ c ^ ^ ^ ^ ^ ^ ^ ^ ^ ^ / o { { { { { { ( ~ ~ ~                     ",
"                                      ^ ^ ^ ^ ^ ^ ^ ^ ^ ^ 7 p p p p p p p p                           ",
"                                      ^ ^ ^ ^ ^ ^ ^ ^ ^ ^ ^ ^ ^ ^ ^ ^ ^ ^ ^                           ",
"                                      5 5 > > > > > > 5 5 5 5 5 ^ ^ ^ ^ ^ ^                           ",
"                    ~ ~ ~ ~ ~ ~ ~ ~ : q r s t t t t u r q q q q v                                     ",
"                    ~ ~ ~ ~ ~ ~ ~ ~ ~ ~ d w . . . . x y ~ ~ ~ ~                                       ",
"                    ~ ~ ~ ~ ~ ~ ~ ~ ~ ~ d w . . . . x z d d ~ ~                                       ",
"          ^ ^ ^ ^ 5 A ~ ~ ~ ~ ~ ~ ~ ~ ~ d w . . . . B C D E ~ ~ ~ ~ ~ ~ ~ F 2 ^ ^ ^ ^ ^ ^ ^           ",
"          ^ ^ ^ ^ G H ~ ~ ~ ~ ~ ~ ~ ~ ~ d w . . . . . I I w d ~ ~ ~ ~ ~ ~ F 2 ^ ^ ^ ^ ^ ^ ^           ",
"          ^ ^ ^ ^ G H ~ ~ ~ ~ ~ ~ ~ ~ ~ d w . . I I I . . J d ~ ~ ~ ~ ~ ~ F 5 ^ ^ ^ ^ ^ ^ ^           ",
"          ^ ^ ^ ^ ^ K L M N ~ ~ ~ ~ ~ ~ d w . O P Q P O . R S T T T T U ~ N V W 4 ^ ^ ^ ^ ^           ",
"          ^ ^ ^ ^ ^ G 2 2       ~ ~ ~ ~ d w . X Y Z Y X . . ` ` ` `  ...~ ~ ( ( +.G ^ ^ ^ ^           ",
"          ^ ^ ^ ^ ^ ^ ^ ^       ~ ~ ~ ~ d w . @.#.^ #.@.. . . . . . ` ..~ ~ ~ ~ H G ^ ^ ^ ^           ",
"          ^ ^ ^ ^ ^ ^ ^ ^       $.$.$.$.$.%.. &.*.=.*.&.. . . . . . ` -.~ ~ ~ ~ ;.>.,.'.^ ^           ",
"          ^ ^ ^ ^ ^             ` ` ` ` ` I . . X X X . . . . . . . .             { {                 ",
"          ^ ^ ^ ^ ^             . . . . . . . . . . . . . . . . . . .             ~ ~                 ",
"          ^ ^ ^ ^ ^             . . . . . . . . . . . . . . . . . . .             ~ ~                 ",
"                          . . . . . . . . . . . . . . . . . . . . . . . . ).d ~ ~ ~ ~                 ",
"                          . . . . . . . . . . . . . . . . . . . . . . . . ).d ~ ~ ~ ~                 ",
"                          . . . . . . . . . . . . . . . . . . . . . . . . ).d ~ ~ ~ ~                 ",
"                    . . . . . . . . . . . . . . . . . . . . . . . . . . . ).d ~ ~ ~ ~                 ",
"                    . . . . . . . . . . . . . . . . . . . . . . . . . . . ).d ~ ~ ~ ~                 ",
"                    !.. . . . . . . . . . . . . . . . . . . . . . . . . . ).d ~ ~ ~ ~                 ",
"                ~ ~ U ~.{.).. . . . . . .                   . . . . . . . ).d ~ ~ ~ ~                 ",
"                ~ ~ ~ ~ d ).. . . . . . .                   . . . . . . . ).d ~ ~ ~ ~                 ",
"                ~ ~ ~ ~ y ].` ` . . . . .                   . . . . . . . ).d ~ ~ ~ ~                 ",
"                ~ ~ ~ ~ ~ ^.^./.                                                                      ",
"                ~ ~ ~ ~ ~ ~ ~ ~                                                                       ",
"                ~ ~ ~ ~ ~ ~ ~ ~                                                                       ",
"                    ~ ~ ~ ~ ~ ~ ~ ~                                                                   ",
"                    ~ ~ ~ ~ ~ ~ ~ ~ ~                                                                 ",
"                    ~ ~ ~ ~ ~ ~ ~ ~ ~                                                                 ",
"                                                                                                      ",
"                                                                                                      "};
