/* XPM */
static char * 005_xpm[] = {
"51 57 134 2",
"  	c None",
". 	c #F11A00",
"+ 	c #E62900",
"@ 	c #EF3A13",
"# 	c #F13E16",
"$ 	c #EA3108",
"% 	c #ED3710",
"& 	c #F12F0D",
"* 	c #AF4E00",
"= 	c #AD4C00",
"- 	c #E67634",
"; 	c #F27E3B",
"> 	c #F37F3B",
", 	c #C7601F",
"' 	c #AD4D00",
") 	c #DC6F2E",
"! 	c #B04D00",
"~ 	c #AE4C00",
"{ 	c #E67533",
"] 	c #F27D3A",
"^ 	c #F37E3B",
"/ 	c #C8601F",
"( 	c #AF4C00",
"_ 	c #DC6E2D",
": 	c #B24F03",
"< 	c #B04D01",
"[ 	c #E97735",
"} 	c #EF7B39",
"| 	c #F07C39",
"1 	c #BD5714",
"2 	c #EB7836",
"3 	c #C75F1E",
"4 	c #AD4B00",
"5 	c #DD6E2D",
"6 	c #E87735",
"7 	c #E47332",
"8 	c #E47432",
"9 	c #D06525",
"0 	c #C35C1A",
"a 	c #C35B1A",
"b 	c #DF702F",
"c 	c #F37E3A",
"d 	c #CC6222",
"e 	c #D96C2B",
"f 	c #F47E3B",
"g 	c #AE4B00",
"h 	c #CC6322",
"i 	c #F37D3A",
"j 	c #D36827",
"k 	c #D86B2A",
"l 	c #D26726",
"m 	c #D16625",
"n 	c #EB7936",
"o 	c #E17130",
"p 	c #D86B2B",
"q 	c #C05A17",
"r 	c #C85F1E",
"s 	c #E07130",
"t 	c #EA7735",
"u 	c #B7530C",
"v 	c #F17C39",
"w 	c #F17C3A",
"x 	c #B45007",
"y 	c #B55109",
"z 	c #AE4E00",
"A 	c #AF4D00",
"B 	c #D83700",
"C 	c #E12F00",
"D 	c #E22E00",
"E 	c #C14500",
"F 	c #E52B00",
"G 	c #F21800",
"H 	c #C84200",
"I 	c #F11800",
"J 	c #F21600",
"K 	c #C74200",
"L 	c #F11700",
"M 	c #F14B1E",
"N 	c #F15524",
"O 	c #F25524",
"P 	c #DA4611",
"Q 	c #CE3E00",
"R 	c #CE3D00",
"S 	c #DC5A21",
"T 	c #F11300",
"U 	c #F26E32",
"V 	c #F27F3B",
"W 	c #F24C1F",
"X 	c #F21400",
"Y 	c #F2622B",
"Z 	c #F26D31",
"` 	c #F14C1F",
" .	c #F11600",
"..	c #F11400",
"+.	c #F2662D",
"@.	c #F27536",
"#.	c #F27636",
"$.	c #F1471C",
"%.	c #F15B27",
"&.	c #F11900",
"*.	c #B14D00",
"=.	c #E52C01",
"-.	c #F11C01",
";.	c #F11B00",
">.	c #ED2100",
",.	c #EE2000",
"'.	c #B94900",
").	c #E67131",
"!.	c #F27938",
"~.	c #F1491D",
"{.	c #BA4900",
"].	c #F27E3A",
"^.	c #F14D1F",
"/.	c #E03000",
"(.	c #DF3100",
"_.	c #F15C28",
":.	c #F1300D",
"<.	c #BD4700",
"[.	c #F1461B",
"}.	c #D03C00",
"|.	c #CC3F00",
"1.	c #CB3E00",
"2.	c #EA5F27",
"3.	c #F2652D",
"4.	c #F2662E",
"5.	c #E24514",
"6.	c #DB3400",
"7.	c #F11500",
"8.	c #F21000",
"9.	c #C34400",
"0.	c #C44400",
"a.	c #EB2400",
"b.	c #EC2300",
"c.	c #C24500",
"                                                                                                      ",
"                                                                                                      ",
"                                                                                                      ",
"                              . . . . . . . . . . . .                                                 ",
"                              . . . . . . . . . . . .                                                 ",
"                              . . . . . . . . . . . .                                                 ",
"                              . . . . . . . . . . . . .                                               ",
"                        . . . . . . . . . . . . . . . . . . . . . . . . .                             ",
"                        . . . . . . . . . . . . . . . . . . . . . . . . .                             ",
"                        + + + + + + @ # # # # # $ + + % # # & . . . . .                               ",
"                        * * * * * = - ; ; ; ; > , * ' ) ; ;                                           ",
"                        ! ! ! ! ! ~ { ] ] ] ] ^ / ! ( _ ] ]                                           ",
"                        : : : < ! ~ { ] ] ] ] ^ / ! ( _ ] ]                                           ",
"                  ! ! ( [ } | 1 ! ~ { ] ] ] ] ^ / ! ( _ ] ] ] ] ] ] ] ] ]                             ",
"                  ! ! ( 2 ] ^ 1 ! ~ { ] ] ] ] ^ / ! ( _ ] ] ] ] ] ] ] ] ]                             ",
"                  ! ! ( 2 ] ^ 1 ! ~ { ] ] ] ] ^ 3 ~ 4 5 ^ ^ ] ] ] ] ] ] ]                             ",
"                  ! ! ( 2 ] ^ 1 ! ~ { ] ] ] ] ] 6 7 8 9 0 a b ] ] ] ] ] ] ] ]                         ",
"                  ! ! ( 2 ] ^ 1 ! ~ { ] ] ] ] ] ] ] c d ! ( e ] ] ] ] ] ] ] ] ]                       ",
"                  ! ! ( 2 ] f 1 ( g { ] ] ] ] ] ] ] ^ h ! ( e i ] ] ] ] ] ] ] ]                       ",
"                  ! ! ( j k k l m 9 n ] ] ] ] ] o k p q ! ! r k k k k k s ] ]                         ",
"                  ! ! ! ( ( 4 [ c c ] ] ] ] ] ^ 3 ( ( ! ! ! ( ( ( ( ( ( g                             ",
"                  ! ! ! ! ! ~ [ ] ] ] ] ] ] ] ^ / ! ! ! ! ! ! ! ! ! ! ! !                             ",
"                  ! ! ! ! ! g t ] ] ] ] ] ] ] c 9 1 1 1 1 1 1 1 1 u ! !                               ",
"                              ] ] ] ] ] ] ] ] ] i c c c c c c c c                                     ",
"                              ] ] ] ] ] ] ] ] ] ] ] ] ] ] ] ] ] ]                                     ",
"                              v w w w w w w w w w w w ] ] ] ] ] ]                                     ",
"                        ! ! ! x y y y y y y y y y y y                                                 ",
"                        ! ! ! ! ! ! ! ! ! ! ! ! ! ! !                                                 ",
"                        ! ! ! ! ! ! * z z z z z A ! !                                                 ",
"                  ! ! ! ! ! ! ! ! A B C C C C D E ! ! ! ! !                                           ",
"                  ! ! ! ! ! ! ! ! z F . . . . G H ! ! ! ! !                                           ",
"                  ! ! ! ! ! ! ! ! z F . . I I J K A A A A A                                           ",
"                  ! ! ! ! ! ! ! ! z F . L M N O P Q Q Q Q R S                                         ",
"                  ! ! ! ! ! ! ! ! z F . T U ; V W G G G G X Y ] ] ]                                   ",
"                  ! ! ! ! ! ! ! ! z F . T Z ] ; ` . . . .  .Y ] ]                                     ",
"                  ! ! ! ! ! ! ! ! z F . ..+.@.#.$.. . . . L %.@.@.                                    ",
"                  ! ! ! ! ! ! ! ! z F . . L  . .&.. . . . . I  . .                                    ",
"                  ! ! ! ! ! ! ! ! z F . . . . . . . . . . . . . .                                     ",
"                  *.*.*.! ! ! ! ! z =.-.-.-.-.-.;.. . . . . . . .                                     ",
"                  >.>.,.'.! ! ! ! ~ ).!.!.!.!.!.~.. . . . . . . .                                     ",
"                  . . G {.! ! ! ! ~ { ] ] ] ] ; ` . . . . . . . .                                     ",
"                  . . G '.z z ! ! ~ { ] ] ].; V ^.. . . . . . . . .                                   ",
"                        /.(./.'.! ~ { ] ]._.M ` :.. . . . . .                                         ",
"                        . . G <.! ~ { ] ; [.. . . . . . . .                                           ",
"                        . . G <.! ~ { ] ; [.. . . . . . . .                                           ",
"                        . . G }.|.1.2.3.4.5.6.6.6.6.6.6.6.6.                                          ",
"                              G G G 7.T 8.9.z z z z z z z z                                           ",
"                              . . . . . G 0.! ! ! ! ! ! ! !                                           ",
"                              a.a.a.a.a.b.c.! ! ! ! ! ! ! ! !                                         ",
"                              A A A A A A ! ! ! ! ! ! ! ! ! ! ! !                                     ",
"                              ! ! ! ! ! ! ! ! ! ! ! ! ! ! ! ! ! !                                     ",
"                              ! ! ! ! ! ! ! ! ! ! ! ! ! ! ! ! ! !                                     ",
"                              ! ! ! ! ! ! ! ! !                                                       ",
"                              ! ! ! ! ! ! ! ! !                                                       ",
"                              ! ! ! ! ! ! ! ! !                                                       ",
"                                                                                                      ",
"                                                                                                      "};
