/* XPM */
static char * 012_xpm[] = {
"51 57 141 2",
"  	c None",
". 	c #F27D3A",
"+ 	c #F11A00",
"@ 	c #F27234",
"# 	c #F27636",
"$ 	c #F11400",
"% 	c #F11500",
"& 	c #F15021",
"* 	c #F15121",
"= 	c #F11B00",
"- 	c #F11C01",
"; 	c #F11D01",
"> 	c #B74A00",
", 	c #D86527",
"' 	c #F27837",
") 	c #EE7635",
"! 	c #B54900",
"~ 	c #D36223",
"{ 	c #B74D04",
"] 	c #B7520C",
"^ 	c #B04D00",
"/ 	c #D66929",
"( 	c #EE7A38",
"_ 	c #AE4C00",
": 	c #D16625",
"< 	c #D56928",
"[ 	c #DD6E2D",
"} 	c #DD6F2E",
"| 	c #B34F05",
"1 	c #B6510A",
"2 	c #E87634",
"3 	c #EF7B38",
"4 	c #AF4C00",
"5 	c #DB6D2C",
"6 	c #F37E3B",
"7 	c #B45007",
"8 	c #B9540F",
"9 	c #F07C39",
"0 	c #B6520B",
"a 	c #E37332",
"b 	c #E37231",
"c 	c #EB7836",
"d 	c #C45C1B",
"e 	c #C55D1C",
"f 	c #D36727",
"g 	c #E27231",
"h 	c #D86B2B",
"i 	c #AD4A00",
"j 	c #EA7836",
"k 	c #F47E3B",
"l 	c #BF5916",
"m 	c #D86B2A",
"n 	c #F37E3A",
"o 	c #D96C2B",
"p 	c #F17C39",
"q 	c #B7530C",
"r 	c #B35005",
"s 	c #D76A2A",
"t 	c #E97735",
"u 	c #B24F03",
"v 	c #B24E03",
"w 	c #ED7A37",
"x 	c #EE7B38",
"y 	c #F17C3A",
"z 	c #E17130",
"A 	c #DC6E2D",
"B 	c #DF6D2D",
"C 	c #F2662D",
"D 	c #E76A2D",
"E 	c #E66B2D",
"F 	c #E06D2D",
"G 	c #B74800",
"H 	c #F21000",
"I 	c #F11300",
"J 	c #D23900",
"K 	c #CF3A00",
"L 	c #B94700",
"M 	c #B94900",
"N 	c #F21800",
"O 	c #D33B00",
"P 	c #D03D00",
"Q 	c #BB4800",
"R 	c #B84A00",
"S 	c #ED2000",
"T 	c #EC2200",
"U 	c #B14D00",
"V 	c #CE3E00",
"W 	c #ED2100",
"X 	c #BF4600",
"Y 	c #D53900",
"Z 	c #F21900",
"` 	c #AF4D00",
" .	c #E92600",
"..	c #AE4E00",
"+.	c #EA2500",
"@.	c #B64B00",
"#.	c #AF4E00",
"$.	c #AD4E00",
"%.	c #EF7B39",
"&.	c #E82800",
"*.	c #E72900",
"=.	c #F01C00",
"-.	c #C9601F",
";.	c #C8601F",
">.	c #F11700",
",.	c #F11600",
"'.	c #DE6F2E",
").	c #BA4900",
"!.	c #D23B00",
"~.	c #B24C00",
"{.	c #B44B00",
"].	c #E32D00",
"^.	c #F15725",
"/.	c #F15A27",
"(.	c #F15524",
"_.	c #F15926",
":.	c #F37D3A",
"<.	c #F31600",
"[.	c #F11900",
"}.	c #F11200",
"|.	c #F27938",
"1.	c #F27E3A",
"2.	c #F27A38",
"3.	c #F27C39",
"4.	c #DC3300",
"5.	c #F27536",
"6.	c #F27B39",
"7.	c #C24500",
"8.	c #F27033",
"9.	c #F27535",
"0.	c #F27133",
"a.	c #F26D31",
"b.	c #F27334",
"c.	c #BC4800",
"d.	c #BD4700",
"e.	c #B55108",
"f.	c #B14C00",
"g.	c #DD3300",
"h.	c #DA3500",
"i.	c #D93600",
"j.	c #F21700",
"                                                                          . . . . . . . .             ",
"                                                                          . . . . . . . .             ",
"                                    + + + + + + + + + + + + +             . . . . . . . .             ",
"                                    + + + + + + + + + + + + + +           . . . . . . . .             ",
"                                    + + + + + + + + + + + + + +           . . . . . . . .             ",
"                                    + + + + + + + + + + + + + +           @ @ # . . . . .             ",
"                              + + + + + + + + + + + + + + + + + + + + + + $ % & . . . . .             ",
"                              + + + + + + + + + + + + + + + + + + + + + + + + * . . . . .             ",
"                              = = = = = = = = - - - - - - = = - - ; + + + = = * . . . . .             ",
"                              > > > > > > > > , ' ' ' ' ) ! > ~ ' '       > > { ] ] ] ] ]             ",
"                              ^ ^ ^ ^ ^ ^ ^ ^ / . . . . ( _ ^ : . .       ^ ^ ^ ^ ^ ^ ^ ^             ",
"                              _ _ _ ^ ^ ^ _ _ < . . . . ( _ ^ : . .       ^ ^ ^ ^ ^ ^ ^ ^             ",
"                          ^ ^ : [ } | ^ 1 } [ 2 . . . . ( _ ^ : . . . . 3 4 ^ ^ ^ ^ ^ ^ ^             ",
"                          ^ ^ 5 . 6 7 ^ 8 6 . . . . . . ( _ ^ : . . . . 9 4 ^ ^ ^ ^ ^ ^ ^             ",
"                          ^ ^ 5 . 6 7 ^ 8 6 . . . . . . ( _ ^ : . . . . 9 4 ^ ^ ^ ^ ^ ^ ^             ",
"                          ^ ^ 5 . 6 7 ^ 0 a b c . . . . 3 d e f b g 9 . 9 d e e e e 7 ^ ^             ",
"                          ^ ^ 5 . 6 7 ^ ^ _ _ < . . . . . 6 6 h _ i j . . 6 6 6 6 k l ^ ^             ",
"                          ^ ^ 5 . 6 7 ^ ^ ^ ^ / . . . . . . . m ^ _ j . . . . . . n l ^ ^             ",
"                          ^ ^ o 9 p q r r r r s . . . . . 9 9 s ^ _ t 9 9 9 9 9 9 p l ^ ^             ",
"                          ^ ^ u r v w 9 9 9 9 p . . . . x v r v ^ ^ | r r r r r r r                   ",
"                          ^ ^ ^ ^ _ 3 . . . . . . . . . ( _ ^ ^ ^ ^ ^ ^ ^ ^ ^ ^ ^ ^                   ",
"                          ^ ^ ^ ^ _ 3 . . . . . . . . . ( i _ _ _ _ _ _ _ ^ ^ ^ ^ ^                   ",
"                                    y . . . . . . . . . p g b b b b b b z 4 ^ ^                       ",
"                                    . . . . . . . . . . . . . . . . . . 9 4 ^ ^                       ",
"                                    . . . . . . . . . . . . . . . . . . 9 4 ^ ^                       ",
"                                    A [ B C C D [ [ [ [ [ [ [ E C C F [ A 4 ^                         ",
"              ^ ^ ^ ^ ^ ^ ^ ^ ^ ^ ^ _ _ G H I J _ _ _ _ _ _ _ K I H L _ _                             ",
"              ^ ^ ^ ^ ^ ^ ^ ^ ^ ^ ^ ^ ^ M N + O ^ ^ ^ ^ ^ ^ ^ P + N Q ^ ^                             ",
"              ^ ^ ^ ^ ^ ^ ^ ^ ^ ^ ^ ^ ^ R S T O > > U ^ ^ ^ ^ V W S X > >                             ",
"          ^ ^ ^ ^ ^ ^ ^ ^ ^ ^ ^ ^ ^ ^ ^ ^ U U Y = Z > ^ ^ ^ ^ ^ U `  .= =           ^ ^ ^             ",
"          ^ ^ ^ ^ ^ ^ ^ ^ ^ ^ ^ ^ ^ ^ ^ ^ ^ ^ Y + N > ^ ^ ^ ^ ^ ^ ..+.+ +           ^ ^ ^             ",
"          4 4 ^ ^ ^ ^ ^ ^ ^ ^ ^ ^ ^ ^ ^ ^ ^ ^ Y + N @.#.#.#.#.#.#.$. .+ +           ^ ^ ^             ",
"    . . %.2 2 e ^ ^ ^ ^ ^ ^ ^ ^ ^ ^ ^ ^ ^ ^ ^ Y + + &.*.*.*.*.*.*.*.=.+ +           ^ ^ ^             ",
"    . . . . . -.^ ^ ^ ^ ^ ^ ^ ^ ^ ^ ^ ^ ^ ^ ^ Y + + + + + + + + + + + + +           ^ ^ ^             ",
"    . . . . . ;.4 4 ^ ^ ^ ` ` ` ` ` ^ ^ ^ ` ` Y + + >.,.,.+ + + + + >.,.,.          ^ ^ ^             ",
"    . . . . . '.f f v ^ ).!.!.!.!.O ~.^ {.O !.].+ >.^./.^.>.+ + + >.(./._.          ^ ^ ^             ",
"    . . . . . :.n n       Z N N N <.{.^ M <.N [.+ }.|.1.2.I + + + I # 1.3.$ + 4.^ ^ ^ ^ ^             ",
"    . . . . . . . .       + + + + N {.^ M N + + + }.' . |.I + + + I 5.. 6.$ + 4.^ ^ ^ ^ ^             ",
"    . . . . . . . .       + + + + N X Q 7.N + + + $ 8.9.0.$ + + + $ a.9.b.% + 4.^ ^ ^ ^ ^             ",
"          . .       ^ ^ c.N + + + + Z Z [.+ + + + + >.>.>.+ + + + + >.>.>.+ + 4.^ ^ ^ ^ ^             ",
"          . .       ^ ^ d.N + + + + + + + + + + + + + + + + + + + + + + + + + 4.^ ^ ^ ^ ^             ",
"          . .       ^ ^ d.N + + + + + + + + + + + + + + + + + + + + + + + + + 4.^ ^ ^ ^ ^             ",
"              e.^ ^ ^ ^ f.M M g.+ + + + + + + + + + + + + + + + + + + + + + + 4.^ ^ ^ ^ ^             ",
"              ^ ^ ^ ^ ^ ^ ^ ^ h.+ + + + + + + + + + + + + + + + + + + + + + + 4.^ ^ ^ ^ ^             ",
"              ^ ^ ^ ^ ^ ^ #...i.+ + + + + + + + + + + + + + + + + + + + + + + 4.^ ^ ^ ^ ^             ",
"          ^ ^ ^ ^ ^ ^ ^ > i.i.&.+ + + + + + + + + + + + + + + +                                       ",
"          ^ ^ ^ ^ ^ ^ ^ d.j.[.+ + + + + + + + + + + + + + + + +                                       ",
"          ^ ^ ^ ^ ^ ^ ^ d.N + + + + + + + + + + + + + + + + + +                                       ",
"          ^ ^ ^ ^ ^ ^ ^ X Z + + + + + + + + + + + + + + + + +                                         ",
"          ^ ^             + + + + + + + + + +                                                         ",
"          ^ ^             + + + + + + + + + +                                                         ",
"          ^ ^             + + + + + + + + + +                                                         ",
"                                                                                                      ",
"                                                                                                      ",
"                                                                                                      ",
"                                                                                                      ",
"                                                                                                      "};
