/* XPM */
static char * 009_xpm[] = {
"51 57 134 2",
"  	c None",
". 	c #F11A00",
"+ 	c #F12F0D",
"@ 	c #F13E16",
"# 	c #ED3710",
"$ 	c #E62900",
"% 	c #EA3108",
"& 	c #EF3A13",
"* 	c #F27E3B",
"= 	c #DC6F2E",
"- 	c #AD4D00",
"; 	c #AF4E00",
"> 	c #C7601F",
", 	c #F37F3B",
"' 	c #E67634",
") 	c #AD4C00",
"! 	c #F27D3A",
"~ 	c #DC6E2D",
"{ 	c #AF4C00",
"] 	c #B04D00",
"^ 	c #C8601F",
"/ 	c #F37E3B",
"( 	c #E67533",
"_ 	c #AE4C00",
": 	c #B04D01",
"< 	c #B24F03",
"[ 	c #BD5714",
"} 	c #F07C39",
"| 	c #EF7B39",
"1 	c #E97735",
"2 	c #EB7836",
"3 	c #DD6E2D",
"4 	c #AD4B00",
"5 	c #C75F1E",
"6 	c #DF702F",
"7 	c #C35B1A",
"8 	c #C35C1A",
"9 	c #D06525",
"0 	c #E47432",
"a 	c #E47332",
"b 	c #E87735",
"c 	c #D96C2B",
"d 	c #CC6222",
"e 	c #F37E3A",
"f 	c #F37D3A",
"g 	c #CC6322",
"h 	c #AE4B00",
"i 	c #F47E3B",
"j 	c #E07130",
"k 	c #D86B2A",
"l 	c #C85F1E",
"m 	c #C05A17",
"n 	c #D86B2B",
"o 	c #E17130",
"p 	c #EB7936",
"q 	c #D16625",
"r 	c #D26726",
"s 	c #D36827",
"t 	c #B7530C",
"u 	c #EA7735",
"v 	c #F17C3A",
"w 	c #F17C39",
"x 	c #B55109",
"y 	c #B45007",
"z 	c #AF4D00",
"A 	c #AE4E00",
"B 	c #C14500",
"C 	c #E22E00",
"D 	c #E12F00",
"E 	c #D83700",
"F 	c #C84200",
"G 	c #F21800",
"H 	c #E52B00",
"I 	c #C74200",
"J 	c #F21600",
"K 	c #F11800",
"L 	c #DC5A21",
"M 	c #CE3D00",
"N 	c #CE3E00",
"O 	c #DA4611",
"P 	c #F25524",
"Q 	c #F15524",
"R 	c #F14B1E",
"S 	c #F11700",
"T 	c #F2622B",
"U 	c #F21400",
"V 	c #F24C1F",
"W 	c #F27F3B",
"X 	c #F26E32",
"Y 	c #F11300",
"Z 	c #F11600",
"` 	c #F14C1F",
" .	c #F26D31",
"..	c #F27536",
"+.	c #F15B27",
"@.	c #F1471C",
"#.	c #F27636",
"$.	c #F2662D",
"%.	c #F11400",
"&.	c #F11900",
"*.	c #F11B00",
"=.	c #F11C01",
"-.	c #E52C01",
";.	c #B14D00",
">.	c #F1491D",
",.	c #F27938",
"'.	c #E67131",
").	c #B94900",
"!.	c #EE2000",
"~.	c #ED2100",
"{.	c #BA4900",
"].	c #F14D1F",
"^.	c #F27E3A",
"/.	c #F1300D",
"(.	c #F15C28",
"_.	c #E03000",
":.	c #DF3100",
"<.	c #F1461B",
"[.	c #BD4700",
"}.	c #DB3400",
"|.	c #E24514",
"1.	c #F2662E",
"2.	c #F2652D",
"3.	c #EA5F27",
"4.	c #CB3E00",
"5.	c #CC3F00",
"6.	c #D03C00",
"7.	c #C34400",
"8.	c #F21000",
"9.	c #F11500",
"0.	c #C44400",
"a.	c #C24500",
"b.	c #EC2300",
"c.	c #EB2400",
"                                                                                                      ",
"                                                                                                      ",
"                                                                                                      ",
"                                                . . . . . . . . . . . .                               ",
"                                                . . . . . . . . . . . .                               ",
"                                                . . . . . . . . . . . .                               ",
"                                              . . . . . . . . . . . . .                               ",
"                            . . . . . . . . . . . . . . . . . . . . . . . . .                         ",
"                            . . . . . . . . . . . . . . . . . . . . . . . . .                         ",
"                              . . . . . + @ @ # $ $ % @ @ @ @ @ & $ $ $ $ $ $                         ",
"                                          * * = - ; > , * * * * ' ) ; ; ; ; ;                         ",
"                                          ! ! ~ { ] ^ / ! ! ! ! ( _ ] ] ] ] ]                         ",
"                                          ! ! ~ { ] ^ / ! ! ! ! ( _ ] : < < <                         ",
"                            ! ! ! ! ! ! ! ! ! ~ { ] ^ / ! ! ! ! ( _ ] [ } | 1 { ] ]                   ",
"                            ! ! ! ! ! ! ! ! ! ~ { ] ^ / ! ! ! ! ( _ ] [ / ! 2 { ] ]                   ",
"                            ! ! ! ! ! ! ! / / 3 4 _ 5 / ! ! ! ! ( _ ] [ / ! 2 { ] ]                   ",
"                        ! ! ! ! ! ! ! ! 6 7 8 9 0 a b ! ! ! ! ! ( _ ] [ / ! 2 { ] ]                   ",
"                      ! ! ! ! ! ! ! ! ! c { ] d e ! ! ! ! ! ! ! ( _ ] [ / ! 2 { ] ]                   ",
"                      ! ! ! ! ! ! ! ! f c { ] g / ! ! ! ! ! ! ! ( h { [ i ! 2 { ] ]                   ",
"                        ! ! j k k k k k l ] ] m n k o ! ! ! ! ! p 9 q r k k s { ] ]                   ",
"                            h { { { { { { ] ] ] { { 5 / ! ! ! ! ! e e 1 4 { { ] ] ]                   ",
"                            ] ] ] ] ] ] ] ] ] ] ] ] ^ / ! ! ! ! ! ! ! 1 _ ] ] ] ] ]                   ",
"                              ] ] t [ [ [ [ [ [ [ [ 9 e ! ! ! ! ! ! ! u h ] ] ] ] ]                   ",
"                                    e e e e e e e e f ! ! ! ! ! ! ! ! !                               ",
"                                    ! ! ! ! ! ! ! ! ! ! ! ! ! ! ! ! ! !                               ",
"                                    ! ! ! ! ! ! v v v v v v v v v v v w                               ",
"                                                x x x x x x x x x x x y ] ] ]                         ",
"                                                ] ] ] ] ] ] ] ] ] ] ] ] ] ] ]                         ",
"                                                ] ] z A A A A A ; ] ] ] ] ] ]                         ",
"                                          ] ] ] ] ] B C D D D D E z ] ] ] ] ] ] ] ]                   ",
"                                          ] ] ] ] ] F G . . . . H A ] ] ] ] ] ] ] ]                   ",
"                                          z z z z z I J K K . . H A ] ] ] ] ] ] ] ]                   ",
"                                        L M N N N N O P Q R S . H A ] ] ] ] ] ] ] ]                   ",
"                                  ! ! ! T U G G G G V W * X Y . H A ] ] ] ] ] ] ] ]                   ",
"                                    ! ! T Z . . . . ` * !  .Y . H A ] ] ] ] ] ] ] ]                   ",
"                                    ....+.S . . . . @.#...$.%.. H A ] ] ] ] ] ] ] ]                   ",
"                                    Z Z K . . . . . &.Z Z S . . H A ] ] ] ] ] ] ] ]                   ",
"                                    . . . . . . . . . . . . . . H A ] ] ] ] ] ] ] ]                   ",
"                                    . . . . . . . . *.=.=.=.=.=.-.A ] ] ] ] ] ;.;.;.                  ",
"                                    . . . . . . . . >.,.,.,.,.,.'._ ] ] ] ] ).!.~.~.                  ",
"                                    . . . . . . . . ` * ! ! ! ! ( _ ] ] ] ] {.G . .                   ",
"                                  . . . . . . . . . ].W * ^.! ! ( _ ] ] A A ).G . .                   ",
"                                        . . . . . . /.` R (.^.! ( _ ] )._.:._.                        ",
"                                          . . . . . . . . <.* ! ( _ ] [.G . .                         ",
"                                          . . . . . . . . <.* ! ( _ ] [.G . .                         ",
"                                          }.}.}.}.}.}.}.}.|.1.2.3.4.5.6.G . .                         ",
"                                          A A A A A A A A 7.8.Y 9.G G G                               ",
"                                          ] ] ] ] ] ] ] ] 0.G . . . . .                               ",
"                                        ] ] ] ] ] ] ] ] ] a.b.c.c.c.c.c.                              ",
"                                    ] ] ] ] ] ] ] ] ] ] ] ] z z z z z z                               ",
"                                    ] ] ] ] ] ] ] ] ] ] ] ] ] ] ] ] ] ]                               ",
"                                    ] ] ] ] ] ] ] ] ] ] ] ] ] ] ] ] ] ]                               ",
"                                                      ] ] ] ] ] ] ] ] ]                               ",
"                                                      ] ] ] ] ] ] ] ] ]                               ",
"                                                      ] ] ] ] ] ] ] ] ]                               ",
"                                                                                                      ",
"                                                                                                      "};
