/* XPM */
static char * 010_xpm[] = {
"51 57 127 2",
"  	c None",
". 	c #F11A00",
"+ 	c #F12A09",
"@ 	c #F12B0A",
"# 	c #F02908",
"$ 	c #ED2000",
"% 	c #EF2604",
"& 	c #ED2100",
"* 	c #F27D3A",
"= 	c #E87634",
"- 	c #AF4C00",
"; 	c #E67533",
"> 	c #D16626",
", 	c #B04D00",
"' 	c #F07C39",
") 	c #EE7A38",
"! 	c #EF7B38",
"~ 	c #B14E02",
"{ 	c #C55D1C",
"] 	c #EE7B38",
"^ 	c #B9540F",
"/ 	c #F37E3A",
"( 	c #C75F1E",
"_ 	c #F37E3B",
": 	c #E87635",
"< 	c #AD4B00",
"[ 	c #F37D3A",
"} 	c #F47E3B",
"| 	c #C35C1A",
"1 	c #C05917",
"2 	c #C85F1E",
"3 	c #E77534",
"4 	c #F07B39",
"5 	c #D86B2B",
"6 	c #C05A17",
"7 	c #B55108",
"8 	c #BE5816",
"9 	c #BF5816",
"0 	c #D16625",
"a 	c #C65E1D",
"b 	c #B95410",
"c 	c #CD6323",
"d 	c #CE6423",
"e 	c #B24E03",
"f 	c #B6520A",
"g 	c #EB7836",
"h 	c #DB6D2C",
"i 	c #D76A2A",
"j 	c #B45006",
"k 	c #E17130",
"l 	c #C15A18",
"m 	c #ED7333",
"n 	c #F27133",
"o 	c #E77533",
"p 	c #E37231",
"q 	c #AE4C00",
"r 	c #D63500",
"s 	c #F11300",
"t 	c #F21100",
"u 	c #AF4B00",
"v 	c #D73800",
"w 	c #F21800",
"x 	c #B14D00",
"y 	c #B64B00",
"z 	c #BE4700",
"A 	c #F21900",
"B 	c #F11900",
"C 	c #C04600",
"D 	c #C14500",
"E 	c #EE1F00",
"F 	c #EF1D00",
"G 	c #AE4E00",
"H 	c #BD4700",
"I 	c #F11600",
"J 	c #AF4D00",
"K 	c #D26726",
"L 	c #AF4E00",
"M 	c #E32D00",
"N 	c #E62A00",
"O 	c #E83F12",
"P 	c #F27234",
"Q 	c #F13B14",
"R 	c #F15725",
"S 	c #E62C01",
"T 	c #D73700",
"U 	c #DA6C2C",
"V 	c #F13D16",
"W 	c #F27E3A",
"X 	c #F14118",
"Y 	c #F2602A",
"Z 	c #F11D02",
"` 	c #E03000",
" .	c #EC7936",
"..	c #DA6C2B",
"+.	c #AD4D00",
"@.	c #F27F3B",
"#.	c #F27E3B",
"$.	c #F2612A",
"%.	c #F11E02",
"&.	c #E02F00",
"*.	c #EB7936",
"=.	c #E97735",
"-.	c #DB6E2D",
";.	c #F02505",
">.	c #F15423",
",.	c #F12E0C",
"'.	c #F15323",
").	c #F11B01",
"!.	c #EB4115",
"~.	c #EF7B39",
"{.	c #F12808",
"].	c #F14A1E",
"^.	c #F27435",
"/.	c #F2642C",
"(.	c #F2652D",
"_.	c #F12305",
":.	c #F13C15",
"<.	c #F27A39",
"[.	c #F2632B",
"}.	c #F11400",
"|.	c #F11800",
"1.	c #F10C00",
"2.	c #F27636",
"3.	c #F2632C",
"4.	c #F25F29",
"5.	c #F11500",
"6.	c #F27536",
"                                                                                                      ",
"                                                                                                      ",
"                                      . . . . . . . . . . . . .                                       ",
"                                      . . . . . . . . . . . . .                                       ",
"                                      . . . . . . . . . . . . .                                       ",
"                      . . . . . . . . . . . . . . . . . . . . . . .                                   ",
"                      . . . . . . . . . . . . . . . . . . . . . . .                                   ",
"                      . . . . . + @ # $ $ # @ @ @ @ % & & & & & & &                                   ",
"                                * * = - - ; * * * * > , , , , , , ,                                   ",
"                                * * = - - ; * * * * > , , , , , , ,                                   ",
"                                * * = - - ; * * * * > , , , , , , ,                                   ",
"                      * * * * * * * = - - ; * * * * ' ) ! ~ , { ] ! ^ , ,                             ",
"                      * * * * * * * = - - ; * * * * * * / ~ , ( * _ ^ , ,                             ",
"                      * * * * * _ _ : < < ; * * * * [ _ } ~ , ( * _ ^ , ,                             ",
"                * * * * * * * / | 1 2 3 ; 4 * * * * 5 1 6 , , ( * _ ^ , ,                             ",
"                * * * * * * * _ 7 , 8 [ * * * * * * > , , , , ( * _ ^ , ,                             ",
"                * * * / / / / } 7 , 9 } / * * * * * 0 - - - - a _ } b , ,                             ",
"                      c c c c d e , f d c g * * * * ; h h h h i c d j , ,                             ",
"                      , , , , , , , , , - ; * * * * * * * * * k - , , , ,                             ",
"                      , , , , , , , , , - ; * * * * * * * * * k , , , , ,                             ",
"                      , , l c c c c c c c g * * * * * * * * * ; - , , , ,                             ",
"                            / / / / / / / * * * * * * * * * * *                                       ",
"                            * * * * * * * * * * * * * * * * * *                                       ",
"                            * * * * 4 ; ; ; ; ; ; ; m n n o ; p                                       ",
"                                      q q q q q q q r s t u q - , ,                                   ",
"                                      , , , , , , , v . w x , , , ,                                   ",
"                                      y y x , , , , v . w x , , , ,                                   ",
"                      , , , , , , , z A B C , , , , v . w x , , , , , , ,                             ",
"                      , , , , , , , z A A C , , , , v . w x , , , , , , ,                             ",
"                      , , , , , , , z A A D , , , , v . w x , , , , , , ,                             ",
"                , , , , , , , , , , z A . E & & & & F . w x , , , , , , , , , , , ,                   ",
"                , , , , , , , , , , z A . . . . . . . . w x , , , , , , , , , , , ,                   ",
"                q q q q q - , , G G H t s B . . . . I s t J G J , , - q q q q q q q                   ",
"                ; ; ; ; ; K , L M N O P P Q . . . . R n P S N T , - k ; ; ; ; ; ; ;                   ",
"                * * * * * U , G E . V W W X . . . . Y * W Z . ` , q  .* * * * * * *                   ",
"                * * * * * ..- +.E . V @.#.X . . . . $.W @.%.. &.q < *.* * * * * * *                   ",
"                * * * * * =.h -.;.. @ >.>.,.. . . . X '.>.).. !.h h ~.* * * * * * *                   ",
"                * * * * * * * #.{.. . B B . . . . . B B B . . ].* * * * * * * * * *                   ",
"                * * * * * * * #.{.. . . . . . . . . . . . . . ].* * * * * * * * * *                   ",
"                * * * * * ^./.(._.. . . . . . . . . . . . . . :././.<.* * * * * * *                   ",
"                * * * * * [.}.}.. . . . . . . . . . . . . . . |.}.1.2.* * * * * * *                   ",
"                * * * * * 3.. . . . . . . . . . . . . . . . . . . }.2.* * * * * * *                   ",
"                * * * * * 4.. . . . . . . . . . . . . . . . . . . 5.6.* * * * * * *                   ",
"                            . . . . . . .           . . . . . . . .                                   ",
"                            . . . . . . .           . . . . . . . .                                   ",
"                            & & & & E . .           . . . $ & & & $                                   ",
"                      , , , , , , , ,                     , , , , , , , ,                             ",
"                      , , , , , , , ,                     , , , , , , , ,                             ",
"                      , , , , , , , ,                     , , , , , , , ,                             ",
"                , , , , , , , , , , ,                     , , , , , , , , , , , , ,                   ",
"                , , , , , , , , , , ,                     , , , , , , , , , , , , ,                   ",
"                , , , , , , , , , , ,                     , , , , , , , , , , , , ,                   ",
"                                                                                                      ",
"                                                                                                      ",
"                                                                                                      ",
"                                                                                                      ",
"                                                                                                      "};
