/* XPM */
static char * 007_xpm[] = {
"51 57 141 2",
"  	c None",
". 	c #F27D3A",
"+ 	c #F11A00",
"@ 	c #F27636",
"# 	c #F27234",
"$ 	c #F15021",
"% 	c #F11500",
"& 	c #F11400",
"* 	c #F15121",
"= 	c #F11B00",
"- 	c #F11D01",
"; 	c #F11C01",
"> 	c #B7520C",
", 	c #B74D04",
"' 	c #B74A00",
") 	c #F27837",
"! 	c #D36223",
"~ 	c #B54900",
"{ 	c #EE7635",
"] 	c #D86527",
"^ 	c #B04D00",
"/ 	c #D16625",
"( 	c #AE4C00",
"_ 	c #EE7A38",
": 	c #D66929",
"< 	c #D56928",
"[ 	c #AF4C00",
"} 	c #EF7B38",
"| 	c #E87634",
"1 	c #DD6E2D",
"2 	c #DD6F2E",
"3 	c #B6510A",
"4 	c #B34F05",
"5 	c #F07C39",
"6 	c #F37E3B",
"7 	c #B9540F",
"8 	c #B45007",
"9 	c #DB6D2C",
"0 	c #C55D1C",
"a 	c #C45C1B",
"b 	c #E27231",
"c 	c #E37231",
"d 	c #D36727",
"e 	c #EB7836",
"f 	c #E37332",
"g 	c #B6520B",
"h 	c #BF5916",
"i 	c #F47E3B",
"j 	c #EA7836",
"k 	c #AD4A00",
"l 	c #D86B2B",
"m 	c #F37E3A",
"n 	c #D86B2A",
"o 	c #F17C39",
"p 	c #E97735",
"q 	c #D76A2A",
"r 	c #B35005",
"s 	c #B7530C",
"t 	c #D96C2B",
"u 	c #B24E03",
"v 	c #EE7B38",
"w 	c #ED7A37",
"x 	c #B24F03",
"y 	c #E17130",
"z 	c #F17C3A",
"A 	c #DC6E2D",
"B 	c #E06D2D",
"C 	c #F2662D",
"D 	c #E66B2D",
"E 	c #E76A2D",
"F 	c #DF6D2D",
"G 	c #B94700",
"H 	c #F21000",
"I 	c #F11300",
"J 	c #CF3A00",
"K 	c #D23900",
"L 	c #B74800",
"M 	c #BB4800",
"N 	c #F21800",
"O 	c #D03D00",
"P 	c #D33B00",
"Q 	c #B94900",
"R 	c #BF4600",
"S 	c #ED2000",
"T 	c #ED2100",
"U 	c #CE3E00",
"V 	c #B14D00",
"W 	c #EC2200",
"X 	c #B84A00",
"Y 	c #E92600",
"Z 	c #AF4D00",
"` 	c #F21900",
" .	c #D53900",
"..	c #EA2500",
"+.	c #AE4E00",
"@.	c #AD4E00",
"#.	c #AF4E00",
"$.	c #B64B00",
"%.	c #F01C00",
"&.	c #E72900",
"*.	c #E82800",
"=.	c #EF7B39",
"-.	c #C9601F",
";.	c #F11600",
">.	c #F11700",
",.	c #C8601F",
"'.	c #F15926",
").	c #F15A27",
"!.	c #F15524",
"~.	c #F15725",
"{.	c #E32D00",
"].	c #D23B00",
"^.	c #B44B00",
"/.	c #B24C00",
"(.	c #BA4900",
"_.	c #DE6F2E",
":.	c #DC3300",
"<.	c #F27C39",
"[.	c #F27E3A",
"}.	c #F27A38",
"|.	c #F27938",
"1.	c #F11200",
"2.	c #F11900",
"3.	c #F31600",
"4.	c #F37D3A",
"5.	c #F27B39",
"6.	c #F27536",
"7.	c #F27334",
"8.	c #F27535",
"9.	c #F26D31",
"0.	c #F27133",
"a.	c #F27033",
"b.	c #C24500",
"c.	c #BC4800",
"d.	c #BD4700",
"e.	c #DD3300",
"f.	c #B14C00",
"g.	c #B55108",
"h.	c #DA3500",
"i.	c #D93600",
"j.	c #F21700",
"            . . . . . . . .                                                                           ",
"            . . . . . . . .                                                                           ",
"            . . . . . . . .             + + + + + + + + + + + + +                                     ",
"            . . . . . . . .           + + + + + + + + + + + + + +                                     ",
"            . . . . . . . .           + + + + + + + + + + + + + +                                     ",
"            . . . . . @ # #           + + + + + + + + + + + + + +                                     ",
"            . . . . . $ % & + + + + + + + + + + + + + + + + + + + + + +                               ",
"            . . . . . * + + + + + + + + + + + + + + + + + + + + + + + +                               ",
"            . . . . . * = = + + + - ; ; = = ; ; ; ; ; ; = = = = = = = =                               ",
"            > > > > > , ' '       ) ) ! ' ~ { ) ) ) ) ] ' ' ' ' ' ' ' '                               ",
"            ^ ^ ^ ^ ^ ^ ^ ^       . . / ^ ( _ . . . . : ^ ^ ^ ^ ^ ^ ^ ^                               ",
"            ^ ^ ^ ^ ^ ^ ^ ^       . . / ^ ( _ . . . . < ( ( ^ ^ ^ ( ( (                               ",
"            ^ ^ ^ ^ ^ ^ ^ [ } . . . . / ^ ( _ . . . . | 1 2 3 ^ 4 2 1 / ^ ^                           ",
"            ^ ^ ^ ^ ^ ^ ^ [ 5 . . . . / ^ ( _ . . . . . . 6 7 ^ 8 6 . 9 ^ ^                           ",
"            ^ ^ ^ ^ ^ ^ ^ [ 5 . . . . / ^ ( _ . . . . . . 6 7 ^ 8 6 . 9 ^ ^                           ",
"            ^ ^ 8 0 0 0 0 a 5 . 5 b c d 0 a } . . . . e c f g ^ 8 6 . 9 ^ ^                           ",
"            ^ ^ h i 6 6 6 6 . . j k ( l 6 6 . . . . . < ( ( ^ ^ 8 6 . 9 ^ ^                           ",
"            ^ ^ h m . . . . . . j ( ^ n . . . . . . . : ^ ^ ^ ^ 8 6 . 9 ^ ^                           ",
"            ^ ^ h o 5 5 5 5 5 5 p ( ^ q 5 5 . . . . . q r r r r s o 5 t ^ ^                           ",
"                  r r r r r r r 4 ^ ^ u r u v . . . . o 5 5 5 5 w u r x ^ ^                           ",
"                  ^ ^ ^ ^ ^ ^ ^ ^ ^ ^ ^ ^ ( _ . . . . . . . . . } ( ^ ^ ^ ^                           ",
"                  ^ ^ ^ ^ ^ ( ( ( ( ( ( ( k _ . . . . . . . . . } ( ^ ^ ^ ^                           ",
"                      ^ ^ [ y c c c c c c b o . . . . . . . . . z                                     ",
"                      ^ ^ [ 5 . . . . . . . . . . . . . . . . . .                                     ",
"                      ^ ^ [ 5 . . . . . . . . . . . . . . . . . .                                     ",
"                        ^ [ A 1 B C C D 1 1 1 1 1 1 1 E C C F 1 A                                     ",
"                            ( ( G H I J ( ( ( ( ( ( ( K I H L ( ( ^ ^ ^ ^ ^ ^ ^ ^ ^ ^ ^               ",
"                            ^ ^ M N + O ^ ^ ^ ^ ^ ^ ^ P + N Q ^ ^ ^ ^ ^ ^ ^ ^ ^ ^ ^ ^ ^               ",
"                            ' ' R S T U ^ ^ ^ ^ V ' ' P W S X ^ ^ ^ ^ ^ ^ ^ ^ ^ ^ ^ ^ ^               ",
"            ^ ^ ^           = = Y Z V ^ ^ ^ ^ ^ ' ` =  .V V ^ ^ ^ ^ ^ ^ ^ ^ ^ ^ ^ ^ ^ ^ ^ ^           ",
"            ^ ^ ^           + + ..+.^ ^ ^ ^ ^ ^ ' N +  .^ ^ ^ ^ ^ ^ ^ ^ ^ ^ ^ ^ ^ ^ ^ ^ ^ ^           ",
"            ^ ^ ^           + + Y @.#.#.#.#.#.#.$.N +  .^ ^ ^ ^ ^ ^ ^ ^ ^ ^ ^ ^ ^ ^ ^ ^ [ [           ",
"            ^ ^ ^           + + %.&.&.&.&.&.&.&.*.+ +  .^ ^ ^ ^ ^ ^ ^ ^ ^ ^ ^ ^ ^ ^ ^ 0 | | =.. .     ",
"            ^ ^ ^           + + + + + + + + + + + + +  .^ ^ ^ ^ ^ ^ ^ ^ ^ ^ ^ ^ ^ ^ ^ -.. . . . .     ",
"            ^ ^ ^           ;.;.>.+ + + + + ;.;.>.+ +  .Z Z ^ ^ ^ Z Z Z Z Z ^ ^ ^ [ [ ,.. . . . .     ",
"            ^ ^ ^           '.).!.>.+ + + >.~.).~.>.+ {.].P ^.^ /.P ].].].].(.^ u d d _.. . . . .     ",
"            ^ ^ ^ ^ ^ :.+ & <.[.@ I + + + I }.[.|.1.+ 2.N 3.Q ^ ^.3.N N N `       m m 4.. . . . .     ",
"            ^ ^ ^ ^ ^ :.+ & 5.. 6.I + + + I |.. ) 1.+ + + N Q ^ ^.N + + + +       . . . . . . . .     ",
"            ^ ^ ^ ^ ^ :.+ % 7.8.9.& + + + & 0.8.a.& + + + N b.M R N + + + +       . . . . . . . .     ",
"            ^ ^ ^ ^ ^ :.+ + >.>.>.+ + + + + >.>.>.+ + + + + 2.` ` + + + + N c.^ ^       . .           ",
"            ^ ^ ^ ^ ^ :.+ + + + + + + + + + + + + + + + + + + + + + + + + N d.^ ^       . .           ",
"            ^ ^ ^ ^ ^ :.+ + + + + + + + + + + + + + + + + + + + + + + + + N d.^ ^       . .           ",
"            ^ ^ ^ ^ ^ :.+ + + + + + + + + + + + + + + + + + + + + + + e.Q Q f.^ ^ ^ ^ g.              ",
"            ^ ^ ^ ^ ^ :.+ + + + + + + + + + + + + + + + + + + + + + + h.^ ^ ^ ^ ^ ^ ^ ^               ",
"            ^ ^ ^ ^ ^ :.+ + + + + + + + + + + + + + + + + + + + + + + i.+.#.^ ^ ^ ^ ^ ^               ",
"                                      + + + + + + + + + + + + + + + + *.i.i.' ^ ^ ^ ^ ^ ^ ^           ",
"                                      + + + + + + + + + + + + + + + + + 2.j.d.^ ^ ^ ^ ^ ^ ^           ",
"                                      + + + + + + + + + + + + + + + + + + N d.^ ^ ^ ^ ^ ^ ^           ",
"                                        + + + + + + + + + + + + + + + + + ` R ^ ^ ^ ^ ^ ^ ^           ",
"                                                        + + + + + + + + + +             ^ ^           ",
"                                                        + + + + + + + + + +             ^ ^           ",
"                                                        + + + + + + + + + +             ^ ^           ",
"                                                                                                      ",
"                                                                                                      ",
"                                                                                                      ",
"                                                                                                      ",
"                                                                                                      "};
