/* XPM */
static char * 008_xpm[] = {
"51 57 114 2",
"  	c None",
". 	c #F11A00",
"+ 	c #F12103",
"@ 	c #F1441A",
"# 	c #ED3D13",
"$ 	c #E32C00",
"% 	c #ED3E14",
"& 	c #F04319",
"* 	c #E42D00",
"= 	c #F27E3B",
"- 	c #DE702F",
"; 	c #AE4D00",
"> 	c #AD4D00",
", 	c #E07230",
"' 	c #EF7C39",
") 	c #AD4C00",
"! 	c #AE4E00",
"~ 	c #F27D3A",
"{ 	c #DE6F2E",
"] 	c #AF4C00",
"^ 	c #E07130",
"/ 	c #EF7B38",
"( 	c #AE4C00",
"_ 	c #B04D00",
": 	c #B9540E",
"< 	c #BA5510",
"[ 	c #B7520C",
"} 	c #B7520B",
"| 	c #F37E3A",
"1 	c #E17130",
"2 	c #DF702F",
"3 	c #F47E3B",
"4 	c #B6520B",
"5 	c #F37E3B",
"6 	c #EF7B39",
"7 	c #F07B39",
"8 	c #DD6F2E",
"9 	c #B34F05",
"0 	c #EE7A38",
"a 	c #AF4D00",
"b 	c #B14E02",
"c 	c #CA6120",
"d 	c #F17D3A",
"e 	c #B14E01",
"f 	c #B7530C",
"g 	c #B55109",
"h 	c #B24F03",
"i 	c #B55108",
"j 	c #E27230",
"k 	c #EE7B38",
"l 	c #CB6221",
"m 	c #B6510A",
"n 	c #B04D01",
"o 	c #AE4B00",
"p 	c #E97735",
"q 	c #D76A2A",
"r 	c #C65E1D",
"s 	c #C55E1D",
"t 	c #EF4A1D",
"u 	c #F1491D",
"v 	c #E5501D",
"w 	c #AF4E00",
"x 	c #EE2000",
"y 	c #E03000",
"z 	c #AD4E00",
"A 	c #B45006",
"B 	c #CC3F00",
"C 	c #D83700",
"D 	c #D73700",
"E 	c #F01D00",
"F 	c #BE5815",
"G 	c #F11900",
"H 	c #C55D1C",
"I 	c #F37D3A",
"J 	c #DF3000",
"K 	c #DA6D2C",
"L 	c #DB6D2C",
"M 	c #B24F04",
"N 	c #B34C00",
"O 	c #CE3E00",
"P 	c #CD3E00",
"Q 	c #E72900",
"R 	c #F11800",
"S 	c #F15222",
"T 	c #F15423",
"U 	c #CE6424",
"V 	c #CE6423",
"W 	c #D96B2B",
"X 	c #C45D1B",
"Y 	c #B64A00",
"Z 	c #F31600",
"` 	c #F21800",
" .	c #F11300",
"..	c #F27A39",
"+.	c #F27E3A",
"@.	c #F11400",
"#.	c #F27A38",
"$.	c #EC7936",
"%.	c #E37332",
"&.	c #E47332",
"*.	c #C35C1A",
"=.	c #B84A00",
"-.	c #F11500",
";.	c #F26B30",
">.	c #F26E32",
",.	c #E42C00",
"'.	c #C34400",
").	c #EF1E00",
"!.	c #F11B00",
"~.	c #B44C00",
"{.	c #B54B00",
"].	c #EF1D00",
"^.	c #BC4800",
"/.	c #BB4800",
"                                                                                                      ",
"                                                                                                      ",
"                                                                                                      ",
"                                                                                                      ",
"                                                                                                      ",
"                                      . . . . . . . . . . . . .                                       ",
"                                      . . . . . . . . . . . . .                                       ",
"                                      . . . . . . . . . . . . .                                       ",
"                                    . . . . . . . . . . . . . . .                                     ",
"                    . . . . . . . . . . . . . . . . . . . . . . . . .                                 ",
"                    . . . . . . . . . . . . . . . . . . . . . . . . .                                 ",
"                    . . . . . + @ @ # $ $ % @ @ @ @ & $ * * * * * * *                                 ",
"                                = = - ; > , = = = = ' ) ! ! ! ! ! ! !                                 ",
"                                ~ ~ { ] ] ^ ~ ~ ~ ~ / ( _ _ _ _ _ _ _                                 ",
"                                ~ ~ { ] ] ^ ~ ~ ~ ~ / : < [ _ _ } < <                                 ",
"                    ~ ~ ~ ~ ~ ~ ~ ~ { ] ] ^ ~ ~ ~ ~ ~ | | 1 ] ] 2 | 3 4 _ _                           ",
"                    ~ ~ ~ ~ ~ ~ ~ ~ { ] ] ^ ~ ~ ~ ~ ~ ~ ~ ^ ] ] { ~ 5 4 _ _                           ",
"                    ~ ~ ~ ~ ~ ~ 6 7 8 9 9 1 ~ ~ ~ ~ ~ 6 7 - ] ] { ~ 5 4 _ _                           ",
"                ~ ~ ~ ~ ~ ~ ~ 0 a b c ~ d ~ ~ ~ ~ ~ / _ b e _ ] { ~ 5 4 _ _                           ",
"                ~ ~ ~ ~ ~ ~ ~ 0 ( _ c ~ ~ ~ ~ ~ ~ ~ / ( _ _ _ ] { ~ 5 4 _ _                           ",
"                ~ ~ ~ ~ ~ ~ ~ 0 ( _ c ~ ~ ~ ~ ~ ~ ~ / ] _ _ _ a { ~ 5 4 _ _                           ",
"                    f g g g g g _ _ h g i j ~ ~ ~ ~ ~ 0 k k k / l g m n _ _                           ",
"                    _ _ _ _ _ _ _ _ _ _ ] ^ ~ ~ ~ ~ ~ ~ ~ ~ ~ ~ c _ _ _ _ _                           ",
"                    _ _ _ ] ( ( ( ( ( ( o ^ ~ ~ ~ ~ ~ ~ ~ ~ ~ ~ c _ _ _ _ _                           ",
"                          p p p p p p p p 6 ~ ~ ~ ~ ~ ~ ~ ~ ~ ~                                       ",
"                          ~ ~ ~ ~ ~ ~ ~ ~ ~ ~ ~ ~ ~ ~ ~ ~ ~ ~ ~                                       ",
"                          ~ ~ ~ ~ ~ ~ 5 5 5 5 5 = = = = = = 5 5                                       ",
"                                    q r r r r s t u u u u v s r < _ _ _ _ _ _ _ _                     ",
"                                      _ _ _ _ w x . . . . y a _ _ _ _ _ _ _ _ _ _                     ",
"                                      _ _ a a z x . . . . y a _ _ _ _ _ _ _ _ _ _                     ",
"          ~ ~ ~ ~ ~ ~ ~ | A _ _ _ _ _ _ _ B C D E . . . . y a _ _ _ _ _ _ _ _ _ F 5 ~ ~ ~ ~           ",
"          ~ ~ ~ ~ ~ ~ ~ | A _ _ _ _ _ _ a y G G . . . . . y a _ _ _ _ _ _ _ _ _ H I ~ ~ ~ ~           ",
"          ~ ~ ~ ~ ~ ~ ~ 5 A _ _ _ _ _ _ a J . . G G G . . y a _ _ _ _ _ _ _ _ _ H I ~ ~ ~ ~           ",
"          ~ ~ ~ ~ ~ 1 K L M _ N O O O O P Q . R S T S R . y a _ _ _ _ _ _ M U V W ~ ~ ~ ~ ~           ",
"          ~ ~ ~ ~ I X ] ] _ _ Y Z ` ` ` ` . .  ...+... .. y a _ _ _ _       | | I ~ ~ ~ ~ ~           ",
"          ~ ~ ~ ~ I H _ _ _ _ Y ` . . . . . . @.#.~ #.@.. y a _ _ _ _       ~ ~ ~ ~ ~ ~ ~ ~           ",
"          ~ ~ $.%.&.*._ _ _ _ =.` . . . . . . -.;.>.;.-.. ,.'.'.'.'.'.      ~ ~ ~ ~ ~ ~ ~ ~           ",
"                ( (             . . . . . . . .  . . .. . G ` ` ` ` `             ~ ~ ~ ~ ~           ",
"                _ _             . . . . . . . . . . . . . . . . . . .             ~ ~ ~ ~ ~           ",
"                _ _             . . . . . . . . . . . . . . . . . . .             ~ ~ ~ ~ ~           ",
"                _ _ _ _ a ).. . . . . . . . . . . . . . . . . . . . . . . .                           ",
"                _ _ _ _ a ).. . . . . . . . . . . . . . . . . . . . . . . .                           ",
"                _ _ _ _ a ).. . . . . . . . . . . . . . . . . . . . . . . .                           ",
"                _ _ _ _ a ).. . . . . . . . . . . . . . . . . . . . . . . . . . .                     ",
"                _ _ _ _ a ).. . . . . . . . . . . . . . . . . . . . . . . . . . .                     ",
"                _ _ _ _ a ).. . . . . . . . . . . . . . . . . . . . . . . . . . !.                    ",
"                _ _ _ _ a ).. . . . . . .                   . . . . . . . ).~.{.N _ _                 ",
"                _ _ _ _ a ).. . . . . . .                   . . . . . . . ).a _ _ _ _                 ",
"                _ _ _ _ a ).. . . . . . .                   . . . . . ` ` ].w _ _ _ _                 ",
"                                                                      ^././._ _ _ _ _                 ",
"                                                                      _ _ _ _ _ _ _ _                 ",
"                                                                      _ _ _ _ _ _ _ _                 ",
"                                                                  _ _ _ _ _ _ _ _                     ",
"                                                                _ _ _ _ _ _ _ _ _                     ",
"                                                                _ _ _ _ _ _ _ _ _                     ",
"                                                                                                      ",
"                                                                                                      "};
