/* XPM */
static char * cola_xpm[] = {
"51 57 163 2",
"  	c None",
". 	c #ECECEC",
"+ 	c #EAEAEA",
"@ 	c #DBDBDB",
"# 	c #030303",
"$ 	c #000000",
"% 	c #CACACA",
"& 	c #BDBDBD",
"* 	c #C0C0C0",
"= 	c #C2C2C2",
"- 	c #B9B9B9",
"; 	c #A5A5A5",
"> 	c #B8B8B8",
", 	c #BFBFBF",
"' 	c #D3D3D3",
") 	c #787878",
"! 	c #5C5C5C",
"~ 	c #FFFFFF",
"{ 	c #484848",
"] 	c #8E8E8E",
"^ 	c #797979",
"/ 	c #8D8D8D",
"( 	c #6E6E6E",
"_ 	c #C7C7C7",
": 	c #DFDFDF",
"< 	c #E0E2CB",
"[ 	c #EBF268",
"} 	c #EBF267",
"| 	c #CCD31F",
"1 	c #C9D111",
"2 	c #D5AB0F",
"3 	c #DB8C0D",
"4 	c #BF833D",
"5 	c #767676",
"6 	c #DCDCDC",
"7 	c #FBFCE3",
"8 	c #E6EF03",
"9 	c #E6EF00",
"0 	c #F5C301",
"a 	c #FD9F00",
"b 	c #D48606",
"c 	c #121212",
"d 	c #F8FACB",
"e 	c #E9F147",
"f 	c #E9F150",
"g 	c #E9F14F",
"h 	c #E6EF0C",
"i 	c #111111",
"j 	c #EBEBEB",
"k 	c #F4F7B6",
"l 	c #FAFBDF",
"m 	c #E8EF38",
"n 	c #101010",
"o 	c #FAFBE2",
"p 	c #E8EF39",
"q 	c #DEDEDE",
"r 	c #B2B2B2",
"s 	c #B0B0B0",
"t 	c #B5B5B5",
"u 	c #E4E7A9",
"v 	c #F3F7B0",
"w 	c #EDF37D",
"x 	c #E8F034",
"y 	c #F2F6AD",
"z 	c #F2F6AE",
"A 	c #F3F6A7",
"B 	c #E7E9B3",
"C 	c #B8B8B5",
"D 	c #E1E829",
"E 	c #EEDA01",
"F 	c #F2CB01",
"G 	c #E0B505",
"H 	c #B27007",
"I 	c #AE7011",
"J 	c #B0AFAE",
"K 	c #E3E3E3",
"L 	c #C3C3C3",
"M 	c #373737",
"N 	c #ECF274",
"O 	c #E9F050",
"P 	c #EAF15C",
"Q 	c #CBD211",
"R 	c #010100",
"S 	c #DAE111",
"T 	c #EEDB01",
"U 	c #F79E08",
"V 	c #1A0A00",
"W 	c #CECECE",
"X 	c #E9F04F",
"Y 	c #C6C6C6",
"Z 	c #EAF25C",
"` 	c #C5C5C5",
" .	c #C4C4C4",
"..	c #EBF15C",
"+.	c #D8D8D8",
"@.	c #999999",
"#.	c #C8C8C8",
"$.	c #DEE55A",
"%.	c #E8F03A",
"&.	c #F5F8BF",
"*.	c #F5F8C0",
"=.	c #C1C648",
"-.	c #B5BB0C",
";.	c #A9AF16",
">.	c #8D920E",
",.	c #DEE60B",
"'.	c #ECDF01",
").	c #EFD502",
"!.	c #E3BF05",
"~.	c #C47D08",
"{.	c #C07C12",
"].	c #969594",
"^.	c #979797",
"/.	c #C6CE08",
"(.	c #60630B",
"_.	c #6A6E0B",
":.	c #CAD108",
"<.	c #C4CB07",
"[.	c #CBD307",
"}.	c #E7EE01",
"|.	c #F6BD02",
"1.	c #F8B701",
"2.	c #FBA901",
"3.	c #E8EE01",
"4.	c #FBA801",
"5.	c #444444",
"6.	c #BDC41F",
"7.	c #D9E108",
"8.	c #DBE207",
"9.	c #EAE802",
"0.	c #EAE801",
"a.	c #EBE703",
"b.	c #ECA006",
"c.	c #ED9606",
"d.	c #ED9706",
"e.	c #C98324",
"f.	c #3F3F3F",
"g.	c #424242",
"h.	c #7D7C7C",
"i.	c #563807",
"j.	c #FBA002",
"k.	c #FCA000",
"l.	c #FAA004",
"m.	c #412B08",
"n.	c #888888",
"o.	c #7E7E7E",
"p.	c #FC9F02",
"q.	c #FB9F04",
"r.	c #878787",
"s.	c #A9A9A9",
"t.	c #A6A6A6",
"u.	c #A4A4A4",
"v.	c #A19B96",
"w.	c #B57409",
"x.	c #B67408",
"y.	c #B5740B",
"z.	c #A6A29F",
"A.	c #A7A7A7",
"B.	c #BEBEBE",
"C.	c #E9E9E9",
"D.	c #E5E5E5",
"E.	c #E6E6E6",
"F.	c #E0E0E0",
"                                                                                                      ",
"                                                                                                      ",
"                                                                                                      ",
"                                                                                                      ",
"                                                                                                      ",
"                                                                                                      ",
"                                              . +       + +                                           ",
"                                        @ # # # # # # # # #                                           ",
"                                        @ $ $ $ $ $ $ $ $ $                                           ",
"                                % & * = - ; ; ; ; ; ; ; ; ; > & , = '                                 ",
"                                ) $ $ $ ! ~ ~ ~ ~ ~ ~ ~ ~ ~ { $ $ $ ]                                 ",
"                                ^ $ $ $ ! ~ ~ ~ ~ ~ ~ ~ ~ ~ { $ $ $ /                                 ",
"                            ( ( _ : : : < [ } } } } } } } } | 1 2 3 4 5 )                             ",
"                            $ $ 6 ~ ~ ~ 7 8 9 9 9 9 9 9 9 9 9 9 0 a b $ c                             ",
"                            $ $ 6 ~ ~ 7 d 8 9 e f f f f f g h 9 0 a b $ i                             ",
"                          j $ $ 6 ~ k 8 8 9 9 l ~ ~ ~ ~ ~ ~ m 9 0 a b $ n                             ",
"                          j $ $ 6 ~ k 9 9 9 9 o ~ ~ ~ ~ ~ ~ p 9 0 a b $ n                             ",
"                      q r s t t u v w 9 x y z A v v v B > C D 9 E F G H I J r K                       ",
"                      L $ M ~ ~ N 9 9 9 O ~ ~ P 9 9 9 Q $ R S 9 9 9 T a U V $ W                       ",
"                      L $ M ~ ~ N 9 9 9 X ~ ~ P 9 9 9 Q $ R S 9 9 9 T a U V $ W                       ",
"                      Y $ M ~ ~ N 9 9 9 X ~ ~ Z 9 9 9 Q $ R S 9 9 9 T a U V $ W                       ",
"                      Y $ M ~ ~ N 9 9 9 X ~ ~ Z 9 9 9 Q $ R S 9 9 9 T a U V $ W                       ",
"                      ` $ M ~ ~ N 9 9 9 X ~ ~ Z 9 9 9 Q $ R S 9 9 9 T a U V $ W                       ",
"                      L $ M ~ ~ N 9 9 9 X ~ ~ Z 9 9 9 Q $ R S 9 9 9 T a U V $ W                       ",
"                      L $ M ~ ~ N 9 9 9 X ~ ~ Z 9 9 9 Q $ R S 9 9 9 T a U V $ W                       ",
"                      ` $ M ~ ~ N 9 9 9 X ~ ~ Z 9 9 9 Q $ R S 9 9 9 T a U V $ W                       ",
"                      Y $ M ~ ~ N 9 9 9 X ~ ~ Z 9 9 9 Q $ R S 9 9 9 T a U V $ W                       ",
"                      Y $ M ~ ~ N 9 9 9 X ~ ~ Z 9 9 9 Q $ R S 9 9 9 T a U V $ W                       ",
"                      L $ M ~ ~ N 9 9 9 X ~ ~ Z 9 9 9 Q $ R S 9 9 9 T a U V $ W                       ",
"                      L $ M ~ ~ N 9 9 9 X ~ ~ Z 9 9 9 Q $ R S 9 9 9 T a U V $ W                       ",
"                       .$ M ~ ~ N 9 9 9 X ~ ~ Z 9 9 9 Q $ R S 9 9 9 T a U V $ W                       ",
"                      ` $ M ~ ~ N 9 9 9 X ~ ~ Z 9 9 9 Q $ R S 9 9 9 T a U V $ W                       ",
"                      Y $ M ~ ~ N 9 9 9 X ~ ~ Z 9 9 9 Q $ R S 9 9 9 T a U V $ W                       ",
"                       .$ M ~ ~ N 9 9 9 X ~ ~ Z 9 9 9 Q $ R S 9 9 9 T a U V $ W                       ",
"                      L $ M ~ ~ N 9 9 9 X ~ ~ Z 9 9 9 Q $ R S 9 9 9 T a U V $ W                       ",
"                      L $ M ~ ~ N 9 9 9 X ~ ~ Z 9 9 9 Q $ R S 9 9 9 T a U V $ W                       ",
"                      ` $ M ~ ~ N 9 9 9 X ~ ~ Z 9 9 9 Q $ R S 9 9 9 T a U V $ W                       ",
"                      Y $ M ~ ~ N 9 9 9 X ~ ~ ..9 9 9 Q $ R S 9 9 9 T a U V $ W                       ",
"                      +.@.@.#.#.$.9 9 9 %.&.*.=.-.-.-.;.>.>.,.9 '.).!.~.{.].^.6                       ",
"                            $ $ /.9 9 9 9 9 9 (.$ $ $ _.9 9 9 9 0 a b $ c                             ",
"                            $ $ /.9 9 9 9 9 9 (.$ $ $ _.9 9 9 9 0 a b $ c                             ",
"                            $ $ /.9 9 9 9 9 9 :.<.<.<.[.9 }.|.1.2.a b $ i                             ",
"                          j $ $ /.9 9 9 9 9 9 9 9 9 9 9 9 3.4.a a a b $ n                             ",
"                          j 5.5.6.7.7.7.8.9.9.9.0.0.9.0.0.a.b.c.c.d.e.f.g.                            ",
"                                h.$ $ $ i.j.k.k.k.k.k.k.k.l.m.$ $ $ n.                                ",
"                                o.$ $ $ i.p.a a a a a a a q.m.$ $ $ r.                                ",
"                                , s.t.u.v.w.x.x.x.x.x.x.x.y.z.s.A.u.B.                                ",
"                                        C.$ $ $ $ $ $ $ $ $ K                                         ",
"                                        C.$ $ $ $ $ $ $ $ $ K                                         ",
"                                          : : D.E.K : F.E.E.                                          ",
"                                                                                                      ",
"                                                                                                      ",
"                                                                                                      ",
"                                                                                                      ",
"                                                                                                      ",
"                                                                                                      ",
"                                                                                                      "};
