/* XPM */
static char * cola3_xpm[] = {
"51 57 402 2",
"  	c None",
". 	c #D8D8D8",
"+ 	c #C8C8C8",
"@ 	c #CCCCCC",
"# 	c #C9C9C9",
"$ 	c #C6C6C6",
"% 	c #C7C7C7",
"& 	c #CBCBCB",
"* 	c #CDCDCD",
"= 	c #DEDEDE",
"- 	c #B5B5B5",
"; 	c #8B8B8B",
"> 	c #868686",
", 	c #848484",
"' 	c #858585",
") 	c #878787",
"! 	c #8E8E8E",
"~ 	c #F0F0F0",
"{ 	c #929292",
"] 	c #0E0E0E",
"^ 	c #000000",
"/ 	c #373737",
"( 	c #B7B7B7",
"_ 	c #F1F1F1",
": 	c #999999",
"< 	c #A8A8A8",
"[ 	c #A9A9A9",
"} 	c #AAAAAA",
"| 	c #B2B2B2",
"1 	c #A3A3A3",
"2 	c #2B2B31",
"3 	c #0B0919",
"4 	c #C1C1C2",
"5 	c #FDFDFE",
"6 	c #FFFFFF",
"7 	c #F8F8F9",
"8 	c #A5A5A5",
"9 	c #575757",
"0 	c #62652D",
"a 	c #5A5E00",
"b 	c #5A5E02",
"c 	c #5E6217",
"d 	c #C6C8B4",
"e 	c #F9FAEB",
"f 	c #FCFDED",
"g 	c #F6F7E7",
"h 	c #B3B3A8",
"i 	c #646464",
"j 	c #656565",
"k 	c #7B7B7B",
"l 	c #7A797B",
"m 	c #959860",
"n 	c #C1C911",
"o 	c #C5CD06",
"p 	c #C5CD07",
"q 	c #C5CD0D",
"r 	c #DCE35D",
"s 	c #ECF27B",
"t 	c #EDF27D",
"u 	c #EBF183",
"v 	c #E2E4B5",
"w 	c #DBDBDB",
"x 	c #CECECE",
"y 	c #757575",
"z 	c #C3C3C3",
"A 	c #A1A1A1",
"B 	c #25242B",
"C 	c #8A8E22",
"D 	c #DEE606",
"E 	c #E3EC01",
"F 	c #E3EC02",
"G 	c #E5EE1A",
"H 	c #E7EF25",
"I 	c #E7EF26",
"J 	c #E8F048",
"K 	c #F3F6BE",
"L 	c #FBFBF8",
"M 	c #FBFBF9",
"N 	c #FCFCFC",
"O 	c #E9E9E9",
"P 	c #797979",
"Q 	c #363636",
"R 	c #9A9A9A",
"S 	c #888D01",
"T 	c #E1EA04",
"U 	c #E6EF00",
"V 	c #E7F02E",
"W 	c #F0F595",
"X 	c #F6F8C4",
"Y 	c #FAFBDF",
"Z 	c #ECECEC",
"` 	c #767676",
" .	c #212121",
"..	c #989898",
"+.	c #000003",
"@.	c #888D03",
"#.	c #E6EF12",
"$.	c #E8F049",
"%.	c #EAF15E",
"&.	c #F1F6AC",
"*.	c #FFFFF8",
"=.	c #ECECED",
"-.	c #222222",
";.	c #BBBBBB",
">.	c #E4E3E3",
",.	c #999693",
"'.	c #381F08",
").	c #8F9006",
"!.	c #E2EA04",
"~.	c #E6EF01",
"{.	c #E7EF24",
"].	c #E7EF34",
"^.	c #E8EF34",
"/.	c #E7EF33",
"(.	c #E7EF17",
"_.	c #E5EF00",
":.	c #EEF48D",
"<.	c #FCFDE6",
"[.	c #ECEDE0",
"}.	c #82827C",
"|.	c #494949",
"1.	c #B9B9B9",
"2.	c #DFDFDF",
"3.	c #E1E1E1",
"4.	c #ACACAC",
"5.	c #A6A4A2",
"6.	c #B08765",
"7.	c #C47B06",
"8.	c #D0AB05",
"9.	c #E5EB02",
"0.	c #E6EF0F",
"a.	c #EEF48F",
"b.	c #F5F8C4",
"c.	c #F5F8C6",
"d.	c #F4F8C0",
"e.	c #ECF27A",
"f.	c #EAF15F",
"g.	c #F0F59B",
"h.	c #EAEFA0",
"i.	c #D0D1BF",
"j.	c #C7C7C8",
"k.	c #B0B0B0",
"l.	c #9E9E9E",
"m.	c #9D9D9D",
"n.	c #5B5B5B",
"o.	c #2C0300",
"p.	c #C17A00",
"q.	c #FE9F01",
"r.	c #F7BE01",
"s.	c #E8ED01",
"t.	c #E7F000",
"u.	c #E8F118",
"v.	c #F5F8BD",
"w.	c #FEFEFB",
"x.	c #F0F5A0",
"y.	c #E9F148",
"z.	c #FCFDE7",
"A.	c #FEFEFF",
"B.	c #616161",
"C.	c #382001",
"D.	c #C17A06",
"E.	c #FD9E00",
"F.	c #F6BE01",
"G.	c #E1EA01",
"H.	c #CFD703",
"I.	c #C8D015",
"J.	c #E4E8A1",
"K.	c #F8FAD9",
"L.	c #F9FBDC",
"M.	c #F8FAD7",
"N.	c #F1F5A6",
"O.	c #EDF386",
"P.	c #EAF26A",
"Q.	c #E6EF07",
"R.	c #E9F14D",
"S.	c #FAFCE5",
"T.	c #FDFDFD",
"U.	c #1E1E1E",
"V.	c #3D3D3D",
"W.	c #E5E5E5",
"X.	c #636363",
"Y.	c #D7DF04",
"Z.	c #868B08",
"`.	c #595C0B",
" +	c #BABF40",
".+	c #E8EF54",
"++	c #E9F155",
"@+	c #EAF163",
"#+	c #F4F7B7",
"$+	c #FBFCE9",
"%+	c #F4F7BA",
"&+	c #E7F01F",
"*+	c #1C1C1C",
"=+	c #696969",
"-+	c #F6BE00",
";+	c #E8ED00",
">+	c #D4DD04",
",+	c #717503",
"'+	c #181901",
")+	c #AFB510",
"!+	c #E4ED0E",
"~+	c #E6EF0D",
"{+	c #E8F041",
"]+	c #F5F8C1",
"^+	c #F6F9CE",
"/+	c #E7F022",
"(+	c #707070",
"_+	c #E3E3E3",
":+	c #D4DC04",
"<+	c #707402",
"[+	c #0E0F00",
"}+	c #AFB50A",
"|+	c #E4EC01",
"1+	c #E8F03F",
"2+	c #F5F8C2",
"3+	c #F6F9CF",
"4+	c #1D1D1D",
"5+	c #4E4E4E",
"6+	c #606060",
"7+	c #727603",
"8+	c #191A01",
"9+	c #AEB40B",
"0+	c #E3EB01",
"a+	c #E5EE01",
"b+	c #E7EF3F",
"c+	c #D7E004",
"d+	c #8A9008",
"e+	c #616409",
"f+	c #A8AD13",
"g+	c #CFD60E",
"h+	c #D1D80E",
"i+	c #D4DB42",
"j+	c #EEF0C4",
"k+	c #070707",
"l+	c #E4E4E4",
"m+	c #626262",
"n+	c #E2EB01",
"o+	c #D0D803",
"p+	c #C8D004",
"q+	c #9CA20F",
"r+	c #7A7E07",
"s+	c #787C06",
"t+	c #858843",
"u+	c #D4D4C7",
"v+	c #E6E6E6",
"w+	c #5F5F5F",
"x+	c #C17900",
"y+	c #FEA002",
"z+	c #F7BE02",
"A+	c #969B0C",
"B+	c #323042",
"C+	c #C6C6C8",
"D+	c #F7FAD0",
"E+	c #FCFEE7",
"F+	c #171717",
"G+	c #EDEDED",
"H+	c #ABABAB",
"I+	c #A4A2A0",
"J+	c #B18A6B",
"K+	c #C07908",
"L+	c #D19D06",
"M+	c #EFCE03",
"N+	c #F0D501",
"O+	c #E8E900",
"P+	c #E5EE00",
"Q+	c #BDC40B",
"R+	c #9DA309",
"S+	c #9CA109",
"T+	c #A2A732",
"U+	c #D5D897",
"V+	c #EFF59D",
"W+	c #E7F016",
"X+	c #E1E83A",
"Y+	c #CBCDB1",
"Z+	c #C4C4C4",
"`+	c #ADADAD",
" @	c #E7E7E7",
".@	c #9E9C9A",
"+@	c #1D1609",
"@@	c #976206",
"#@	c #F6A004",
"$@	c #FAB001",
"%@	c #EBE201",
"&@	c #E6F000",
"*@	c #E2EB06",
"=@	c #E0E80C",
"-@	c #E0E80D",
";@	c #E4EC15",
">@	c #E7EF1A",
",@	c #E6F012",
"'@	c #E6F001",
")@	c #D6DF11",
"!@	c #717529",
"~@	c #39393A",
"{@	c #B3B3B3",
"]@	c #000004",
"^@	c #955C02",
"/@	c #F79B03",
"(@	c #FBAA01",
"_@	c #EFD701",
":@	c #EAE500",
"<@	c #E8EA00",
"[@	c #E6EE00",
"}@	c #E9E900",
"|@	c #EAE400",
"1@	c #EBE500",
"2@	c #D9D40C",
"3@	c #6B6904",
"4@	c #222224",
"5@	c #B6B6B6",
"6@	c #945C00",
"7@	c #F79C03",
"8@	c #FDA400",
"9@	c #F8B801",
"0@	c #F6BF01",
"a@	c #EDDB01",
"b@	c #E7ED00",
"c@	c #F0D401",
"d@	c #F7BF01",
"e@	c #E3B10A",
"f@	c #705601",
"g@	c #202123",
"h@	c #B8B8B8",
"i@	c #9C9C9C",
"j@	c #282D2F",
"k@	c #966326",
"l@	c #F39A05",
"m@	c #F99D01",
"n@	c #F99E01",
"o@	c #F8A001",
"p@	c #EED002",
"q@	c #E7EC00",
"r@	c #F1C301",
"s@	c #F89F01",
"t@	c #F99F00",
"u@	c #E59511",
"v@	c #79542C",
"w@	c #3D3E3E",
"x@	c #BEBEBE",
"y@	c #7F8080",
"z@	c #A0816A",
"A@	c #CF8412",
"B@	c #D48604",
"C@	c #D48505",
"D@	c #D48705",
"E@	c #E2BB05",
"F@	c #EDD901",
"G@	c #EEDA01",
"H@	c #ECD701",
"I@	c #DEAD05",
"J@	c #D48602",
"K@	c #C78431",
"L@	c #978578",
"M@	c #8C8C8C",
"N@	c #66472A",
"O@	c #613A00",
"P@	c #613B02",
"Q@	c #643D02",
"R@	c #C58807",
"S@	c #F8AA01",
"T@	c #FAAC00",
"U@	c #F4A801",
"V@	c #B07706",
"W@	c #603A01",
"X@	c #603900",
"Y@	c #7C685A",
"Z@	c #2B2F31",
"`@	c #00010A",
" #	c #00040C",
".#	c #100E0C",
"+#	c #BA770D",
"@#	c #F69C06",
"##	c #F99E06",
"$#	c #F29907",
"%#	c #9F650C",
"&#	c #00000C",
"*#	c #00040D",
"=#	c #606162",
"-#	c #909090",
";#	c #A09F9E",
">#	c #A68C79",
",#	c #A0671C",
"'#	c #A06403",
")#	c #A26D32",
"!#	c #A89587",
"~#	c #838383",
"{#	c #A6A6A6",
"]#	c #969797",
"^#	c #00000F",
"/#	c #2E3438",
"(#	c #AFAFAF",
"_#	c #8F8F8F",
":#	c #8D8D8D",
"<#	c #969696",
"[#	c #DCDCDC",
"}#	c #D5D5D5",
"|#	c #D1D1D1",
"1#	c #CFCFCF",
"2#	c #D2D2D2",
"3#	c #D0D0D0",
"4#	c #D4D4D4",
"5#	c #D3D3D3",
"                                                                                                      ",
"                                                                                                      ",
"                                                                                                      ",
"                                                                                                      ",
"                                                                                                      ",
"                                                                                                      ",
"                                                                                                      ",
"                                                                                                      ",
"                                                                                                      ",
"                                                                                                      ",
"                                                                                                      ",
"                                                                                                      ",
"                                                                                                      ",
"                                                                                                      ",
"                                                                                                      ",
"                                                                                                      ",
"                                                                                                      ",
"                                                                                                      ",
"                                                                                                      ",
"                                                                                                      ",
"                                                                                                      ",
"                                                                                                      ",
"                                                                                                      ",
"                                . + + @ # $ % $ & & % % + & # % % # * =                               ",
"                                - ; > , ' ) ) > , , ) ) > , > ) ) ' ! +                               ",
"                        ~       { ] ^ ^ ^ ^ ^ ^ ^ ^ ^ ^ ^ ^ ^ ^ ^ ^ / ( _                             ",
"                        - :     < [ [ [ [ [ [ [ [ [ [ [ [ [ [ [ [ [ } | | 1                           ",
"                        2 ^ ^ 3 4 5 6 6 6 6 6 6 6 6 6 6 6 6 6 6 6 6 7 8 ^ ^ ^ 9                       ",
"                        0 a b c d e f f f f f f f f f f f f f f f f g h i j i k                       ",
"                  - l m n o p q r s t t t t t t t t t t t t t t t t u v w w w x ! y z                 ",
"                  A B C D E E F G H I I I I I I I I I I I I I I I I J K L M N O P Q (                 ",
"                  R ^ S T U U U U U U U U U U U U U U U U U U U U U V W X Y 6 Z `  .(                 ",
"                  ..+.@.T U U U U U U U U U U U U U U U U U U U U U #.$.%.&.*.=.` -.;.                ",
"                >.,.'.).!.U U ~.{.].^.^.^.^.^.^.^.^.^.^.^.^.^.^.^.^./.(._.:.<.[.}.|.1.2.3.            ",
"              4.5.6.7.8.9.U U 0.a.b.c.c.c.c.c.c.c.c.c.c.c.c.c.c.c.c.d.e.U f.g.h.i.j.k.l.m.            ",
"            2.n.o.p.q.r.s.U t.u.v.6 6 6 6 6 6 6 6 6 6 6 6 6 6 6 6 6 w.x._.U _.y.z.A.[ ^ ^             ",
"            3.B.C.D.E.F.s.G.H.I.J.K.L.L.L.L.L.L.L.L.L.L.L.L.L.L.L.L.M.N.O.P.Q.R.S.T.[ U.V.            ",
"            W.X.C.D.E.F.s.Y.Z.`. +.+++++++++++++++++++++++++++++++++@+#+$+%+&+R.S.T.[ *+=+            ",
"            W.X.C.D.E.-+;+>+,+'+)+!+~+~+~+~+~+~+~+~+~+~+~+~+~+~+~+~+{+]+6 ^+/+R.S.T.[ *+(+            ",
"            _+B.C.D.E.-+;+:+<+[+}+|+U U U U U U U U U U U U U U U U 1+2+6 3+/+R.S.T.[ 4+5+            ",
"            2.6+C.D.E.F.s.>+7+8+9+0+a+a+a+a+a+a+a+a+a+a+a+a+a+a+a+a+b+2+6 3+/+R.S.T.[ U.*+            ",
"            2.6+C.D.E.-+s.c+d+e+f+g+h+h+h+h+h+h+h+h+h+h+h+h+h+h+h+h+i+j+6 3+/+R.S.T.[ U.k+            ",
"            l+m+C.D.E.-+s.n+o+p+q+r+s+s+s+s+s+s+s+s+s+s+s+s+s+s+s+s+t+u+6 3+/+R.S.T.[ *+j             ",
"            v+w+o.x+y+z+s.t.t.U A+^ ^ ^ ^ ^ ^ ^ ^ ^ ^ ^ ^ ^ ^ ^ ^ ^ B+C+6 D+/+R.E+6 [ F+y G+          ",
"              H+I+J+K+L+M+N+O+P+Q+R+S+S+S+S+S+S+S+S+S+S+S+S+S+S+S+S+T+U+b.V+W+X+Y+Z+`+w+>             ",
"               @3..@+@@@#@$@%@&@*@=@=@=@=@=@=@=@=@=@=@=@=@=@=@=@=@=@-@;@>@,@'@)@!@~@{@                ",
"                  m.]@^@/@(@_@:@<@U U U U U U U U U U U U U U U U U [@}@|@|@1@2@3@4@5@                ",
"                  R ^ 6@7@8@9@0@a@[@U U U U U U U U U U U U U U U U b@c@F.F.d@e@f@g@h@                ",
"                  i@j@k@l@m@n@o@p@q@b@b@b@b@b@b@b@b@b@b@b@b@b@b@b@b@O+r@s@s@t@u@v@w@x@                ",
"                  {@y@z@A@B@C@D@E@F@G@G@G@G@G@G@G@G@G@G@G@G@G@G@G@G@H@I@C@C@J@K@L@M@*                 ",
"                        N@O@P@Q@R@S@T@T@T@T@T@T@T@T@T@T@T@T@T@T@T@T@U@V@W@P@X@Y@                      ",
"                        Z@`@ #.#+#@#################################$#%#&#*#^ =#                      ",
"                            -#;#>#,#'#'#'#'#'#'#'#'#'#'#'#'#'#'#'#'#)#!#    ~#{#                      ",
"                                ]#^#^ ^ ^ ^ ^ ^ ^ ^ ^ ^ ^ ^ ^ ^ ^ ^ /#(#                              ",
"                                h@_#:#:#:#:#M@:#:#:#M@M@:#:#:#M@M@:#<#+                               ",
"                                [#}#|#1#1#2#}#|#1#3#4#5#1#1#1#5#4#3#2#l+                              ",
"                                                                                                      "};
