/* XPM */
static char * enemy1_xpm[] = {
"51 57 101 2",
"  	c None",
". 	c #FFDDD6",
"+ 	c #A41002",
"@ 	c #A70F01",
"# 	c #A70F02",
"$ 	c #FFE2DD",
"% 	c #A61001",
"& 	c #FFE1DF",
"* 	c #FFE3DF",
"= 	c #991508",
"- 	c #A71000",
"; 	c #9D1306",
"> 	c #981608",
", 	c #85291E",
"' 	c #87291F",
") 	c #912519",
"! 	c #A71102",
"~ 	c #A41101",
"{ 	c #FFE1DC",
"] 	c #FFDED8",
"^ 	c #942419",
"/ 	c #A80F01",
"( 	c #9A1506",
"_ 	c #250000",
": 	c #0E0000",
"< 	c #280000",
"[ 	c #0F0000",
"} 	c #89281F",
"| 	c #1E0000",
"1 	c #000000",
"2 	c #000100",
"3 	c #A61002",
"4 	c #010002",
"5 	c #000002",
"6 	c #010000",
"7 	c #FFE0DD",
"8 	c #FFDBD6",
"9 	c #400000",
"0 	c #2B0000",
"a 	c #2A0000",
"b 	c #160A00",
"c 	c #150A00",
"d 	c #260500",
"e 	c #7B1D13",
"f 	c #85190D",
"g 	c #220000",
"h 	c #2C0000",
"i 	c #9E2012",
"j 	c #FEDFA8",
"k 	c #FCDFA7",
"l 	c #EAD4AB",
"m 	c #9A2408",
"n 	c #FDDEA7",
"o 	c #1B0000",
"p 	c #010101",
"q 	c #F6E0AF",
"r 	c #F9DFAE",
"s 	c #FFCDA7",
"t 	c #F7E0AE",
"u 	c #110B00",
"v 	c #9A1408",
"w 	c #8A281F",
"x 	c #FADFA8",
"y 	c #FFCC9F",
"z 	c #A61000",
"A 	c #120B00",
"B 	c #FDDEA8",
"C 	c #EDD5A5",
"D 	c #231400",
"E 	c #FCDFA5",
"F 	c #FCDEA8",
"G 	c #FDE0A8",
"H 	c #9A240A",
"I 	c #A60E00",
"J 	c #A81002",
"K 	c #95251A",
"L 	c #FFDED7",
"M 	c #9D1F11",
"N 	c #A2200A",
"O 	c #FFC89D",
"P 	c #FFC79D",
"Q 	c #FFDCD6",
"R 	c #942218",
"S 	c #803933",
"T 	c #91280A",
"U 	c #90290A",
"V 	c #8B3810",
"W 	c #8A2918",
"X 	c #181818",
"Y 	c #0C0C0C",
"Z 	c #0E0B04",
"` 	c #0D0D0D",
" .	c #F7DFAF",
"..	c #F9DFAC",
"+.	c #FADEAC",
"@.	c #030000",
"#.	c #1A160B",
"$.	c #F2E2C0",
"%.	c #F4E1C0",
"&.	c #F4E2BE",
"*.	c #0B0B0B",
"                                                                                                      ",
"                                                                                                      ",
"                                                                                                      ",
"                                                                                                      ",
"                                                                                                      ",
"                                                                                                      ",
"                                                                                                      ",
"                                                                                                      ",
"                                                                                                      ",
"                                        . . . . . . . . . .                                           ",
"                                        + @ # @ @ @ @ @ @ @ $                                         ",
"                                        % @ @ @ @ @ @ @ @ @ &                                         ",
"                                  * = = @ @ - @ @ @ @ @ @ @ ; = >                                     ",
"                                  $ @ @ @ % @ @ @ @ @ @ % @ @ @ %                                     ",
"                              , ' ) @ @ @ @ @ @ @ @ @ @ @ @ @ @ ! ' '                                 ",
"                              ~ @ @ @ @ @ @ @ @ @ @ @ @ @ @ @ @ @ - @ {                               ",
"                              % @ @ @ @ @ @ @ @ @ @ @ @ @ @ @ @ @ @ @ ]                               ",
"                        ^ % @ % @ @ @ @ @ @ @ @ @ @ @ @ @ @ @ @ @ @ @ @ @ ~                           ",
"                        ^ @ @ @ @ @ @ @ @ @ @ @ @ @ @ @ @ @ @ @ @ @ @ - / %                           ",
"                    = ( _ : : : : < @ @ @ @ @ @ @ @ @ @ @ @ @ @ ~ : : : : [ > = }                     ",
"                    @ @ | 1 1 1 2 | @ @ @ @ @ @ @ @ @ @ 3 @ @ @ % 4 1 5 1 6 + @ ^                     ",
"              7 . 8 - @ 9 0 a b c d e e % @ @ @ @ @ @ @ @ @ f e e c c g 0 h % - i . .                 ",
"              ^ - # @ @ @ @ @ j k l 1 1 ~ @ @ @ @ @ @ @ @ @ | 1 1 k k m @ @ @ @ @ @ %                 ",
"              ^ @ @ @ @ @ @ @ n k l 1 6 > = = = = = = = = = o 1 1 k k m @ @ @ @ @ - 3                 ",
"              ^ @ / @ @ @ @ @ n k l 1 p 1 1 1 1 1 1 1 1 1 1 6 1 1 k k m @ @ @ @ - @ %                 ",
"              ^ % @ @ @ @ @ @ n k l 1 1 1 1 1 1 1 1 1 1 1 1 1 1 1 k k m @ @ @ @ # @ %                 ",
"          = = + @ @ @ @ @ @ @ n k l 1 1 q r s = = = = > t r u 1 1 k k m @ @ @ @ @ @ @ v = w           ",
"          @ @ @ @ @ @ @ @ @ @ n k l 1 1 x k y @ @ @ @ z k k A 1 1 k k m @ @ @ @ @ @ @ @ @ ^           ",
"          @ @ @ @ @ @ @ @ @ @ B k C c b k k y @ @ @ @ z k k D c b k k m @ @ @ @ @ @ @ @ @ ^           ",
"          @ @ @ @ @ @ @ @ @ @ n E k k k k k y @ @ @ @ z n k k n F n k m @ @ @ @ @ @ @ @ @ ^           ",
"          @ @ @ @ @ @ @ @ @ @ n n k n k k k y @ @ # @ % G k k k k n k H @ @ @ @ @ / @ @ @ ^           ",
"          @ @ @ @ @ @ @ @ @ @ @ @ @ @ @ @ % @ @ @ @ @ @ @ / @ @ @ @ @ % I @ @ @ @ @ @ @ @ ^           ",
"          @ @ @ @ - @ @ @ @ @ @ @ J % @ @ @ @ @ @ @ @ @ @ @ @ @ @ / @ @ @ @ @ @ @ @ @ @ @ K           ",
"          L . M / @ @ @ @ @ @ - - N O O P O O P O O O O O O O O P - - @ @ @ @ @ @ # @ Q . 7           ",
"              R % @ @ @ @ @ @ @ @ m k k k k k k k k k k k k k k k @ @ @ @ @ @ @ @ @ @                 ",
"              S ' ' ' ' ' ' ' T U V k k k k k k k k k k k k k k k U T W ' ' ' ' ' ' '                 ",
"                              x k k k k k k k k k k k k k k k k k k k                                 ",
"                              F k k k k k k k k k k k k k k k k k k k                                 ",
"                    1 1 1 1 1 x G k k k k k k k k k k k k k k E k E k                                 ",
"                    1 1 1 1 1 x k k k k k k k k k k k k k k k n k k F                                 ",
"              X Y Y 1 1 1 1 1 c c c c c k k k k k k k k k k k G k c c Z Y Y                           ",
"              ` 1 1 1 1 1 1 1 1 p 1 1 1 x n k k k k k k k k k k x 1 1 1 1 1                           ",
"              Y 1 1 1 1 1 1 1 1 1 1 1 1  .r ..k k k k k k G +.r  .1 1 1 1 1                           ",
"              Y 1 1 1 1 1 1 1 1 1 1 1 1 1 5 A k k k k k k k A 1 1 1 1 1 1 1                           ",
"              Y 1 1 1 1 1 1 1 1 1 1 1 5 1 1 A k k k k k E n A 1 1 1 1 1 1 1                           ",
"                    1 1 1 1 1 1 1 1 1 1 1 1 A k k k k x @.@.6 1 1 1 1                                 ",
"                    1 1 1 1 1 1 1 1 1 1 1 1 A k k k k x 1 1 1 1 1 1 1                                 ",
"                    Y Y Y Y Y Y Y Y Y Y Y Y #.$.$.$.%.&.*.Y Y Y Y Y Y                                 ",
"                                                                                                      ",
"                                                                                                      ",
"                                                                                                      ",
"                                                                                                      ",
"                                                                                                      ",
"                                                                                                      ",
"                                                                                                      ",
"                                                                                                      ",
"                                                                                                      "};
