/* XPM */
static char * enemy2_xpm[] = {
"51 57 94 2",
"  	c None",
". 	c #A41002",
"+ 	c #A70F01",
"@ 	c #A70F02",
"# 	c #A80F01",
"$ 	c #942418",
"% 	c #A61002",
"& 	c #A71000",
"* 	c #A80F00",
"= 	c #991506",
"- 	c #991508",
"; 	c #A31201",
"> 	c #981609",
", 	c #A80E02",
"' 	c #FFDDD6",
") 	c #FFDCD6",
"! 	c #A61001",
"~ 	c #FFE2DD",
"{ 	c #A41101",
"] 	c #942419",
"^ 	c #87291F",
"/ 	c #2B0000",
"( 	c #2C0000",
"_ 	c #350000",
": 	c #862A1F",
"< 	c #010000",
"[ 	c #000000",
"} 	c #1E0000",
"| 	c #0F0000",
"1 	c #0E0000",
"2 	c #0B0000",
"3 	c #030000",
"4 	c #060000",
"5 	c #9A1408",
"6 	c #A31102",
"7 	c #040000",
"8 	c #280000",
"9 	c #952318",
"0 	c #9A2408",
"a 	c #FCDFA7",
"b 	c #FCDEA8",
"c 	c #000002",
"d 	c #88180C",
"e 	c #9B230A",
"f 	c #A60E00",
"g 	c #0D0000",
"h 	c #0A0000",
"i 	c #010101",
"j 	c #FFE3DE",
"k 	c #FFDDD8",
"l 	c #9E2012",
"m 	c #150A00",
"n 	c #1D0600",
"o 	c #120B00",
"p 	c #FFCDC4",
"q 	c #FFDED7",
"r 	c #FFE1DB",
"s 	c #FFCC9F",
"t 	c #FDDEA7",
"u 	c #EAD4AB",
"v 	c #FDDEA5",
"w 	c #EAD5AA",
"x 	c #FCDFA5",
"y 	c #9F1400",
"z 	c #91280A",
"A 	c #98250A",
"B 	c #912808",
"C 	c #9F1401",
"D 	c #A81002",
"E 	c #A61000",
"F 	c #991509",
"G 	c #991307",
"H 	c #9D1401",
"I 	c #9C1501",
"J 	c #9C1408",
"K 	c #89291D",
"L 	c #A71102",
"M 	c #FFEFE0",
"N 	c #FFDAA7",
"O 	c #FFEFE2",
"P 	c #F1E8D9",
"Q 	c #FAE0A7",
"R 	c #F9DFAE",
"S 	c #FADFA8",
"T 	c #120A00",
"U 	c #FDE0A8",
"V 	c #000100",
"W 	c #EBD5AC",
"X 	c #160A00",
"Y 	c #FDDFA9",
"Z 	c #F7DFAF",
"` 	c #F8DDAE",
" .	c #F9DFAC",
"..	c #130A00",
"                                                                                                      ",
"                                                                                                      ",
"                                                                                                      ",
"                                                                                                      ",
"                                                                                                      ",
"                                                                                                      ",
"                                                                                                      ",
"                                                                                                      ",
"                                                                                                      ",
"                                                                                                      ",
"                                        . + @ + + + # + + $                                           ",
"                                        % & + + + + + * + $                                           ",
"                                    = - + + + + + + + + + ; - >                                       ",
"                                    & + + + , + + + + # + & + %                                       ",
"                                ' ) + + ! + + + + + ! + + # + ! ' '                                   ",
"                              ~ + + # + + + + + + + + + + + + + + + ~                                 ",
"                              ~ ! + + + + + + + + + + + + + + + + + ~                                 ",
"                          { + + + ! + + + + + + + + + + + + + + + + + # ]                             ",
"                          { + + + + + + + + + + + + + + + + + + + + + + ]                             ",
"                      ^ ^ / / / / ( + + + + + + + + + ! + + + ! ( / / / _ ^ :                         ",
"                      + ! < [ [ [ < + & + ! + + + + + + + + + % < [ [ [ } # !                         ",
"                      + + | 1 2 3 4 - 5 + + + + + + + + + 6 - > 7 3 2 1 8 + +                         ",
"                9 + + + + + & 0 a b [ c % + + + + + + + + d [ < a a e + + f + + + ~                   ",
"                $ + + + + + + 0 a b [ [ . + + + + + + + # d [ < a a e + + + + + + ~                   ",
"                $ + + + + + + 0 a b [ [ g 1 1 1 1 1 1 1 1 h [ < a a e + + + + + + ~                   ",
"                $ + + + + + + 0 a b [ [ [ [ [ [ [ [ [ [ [ i [ < a a e + + + + + + j                   ",
"            k ' l + + + + + + 0 a b [ [ m m n / / / / m m o [ < a a e + + + + + + p q r               ",
"            . + + + + + + + + 0 a b [ [ b a s + + + + t a u [ < a a e + + + + + + + + $               ",
"            . + + + + + + + + 0 a b 3 3 b a s + + + + v a w 3 7 a a e + + + + + + + + $               ",
"            . + + + + + + + + 0 a b a a a a s + + + + a a a a a a a e + + + + + + + + $               ",
"            . + + + + + + + + 0 a a a a a a s + + + + t x a a a a a e + + + + + + + + $               ",
"            { + + + + + + + + y z z z z z z A + + + & B B B B z z z C + + + + + + + + $               ",
"            . + + ! + + + + + + D + + + + + f + E & # + + + + + + + + + + + + + + + + $               ",
"            F G . + & + + + + + + + H H H H H H H H H I H H I H + + + + + + + f + J 5 K               ",
"                $ + + + + + + + D ! a a a a a a a a a a a a a t + + + f @ + + + + ~                   ",
"                $ + + + + + + # + L x a a a a a a a a a a a a t + + + f + + + + f ~                   ",
"                              M N N a a a a a a a a a a a a a a N N O                                 ",
"                                a a a a a a a a a a a a a a a a a a                                   ",
"                                a x a a a a a a a a a a a t a a a a P                                 ",
"                                a a x a a a a a a a a Q a x a a a a o [ [ c [                         ",
"                                R R a a a a a a a a a a a S R R R R T [ [ [ [                         ",
"                          [ [ [ [ < a a a a a a a a a a U u [ [ [ [ [ [ [ [ [ [ [                     ",
"                          [ [ [ V < a x a a a a a a a Q a W [ [ [ [ [ [ [ [ [ [ [                     ",
"                          [ [ [ [ [ m m S a a a a a a X m T [ [ [ [ [ [ [ [ [ [ [                     ",
"                          [ [ [ [ [ [ [ Y a x a a a a [ [ [ [ [ [ [ [ [ [ [ i [ [                     ",
"                          [ [ [ [ [ [ [ Z `  .a a a Q [ [ [ [ [ [ [ [ [ [ [ [ [ [                     ",
"                                [ [ [ [ [ [ ..a a a a [ [ [ [ [ [ [ [ [ [ [ [                         ",
"                                [ [ [ [ [ [ o a a a a [ c [ [ [ [ [ [ [ [ [ [                         ",
"                                                                                                      ",
"                                                                                                      ",
"                                                                                                      ",
"                                                                                                      ",
"                                                                                                      ",
"                                                                                                      ",
"                                                                                                      ",
"                                                                                                      ",
"                                                                                                      "};
