/* XPM */
static char * exit_xpm[] = {
"51 57 302 2",
"  	c None",
". 	c #EFA284",
"+ 	c #EC7C3C",
"@ 	c #F3C38C",
"# 	c #F2CF9A",
"$ 	c #F8B66C",
"% 	c #F0924F",
"& 	c #F3A05A",
"* 	c #F4A55F",
"= 	c #E27B65",
"- 	c #E65100",
"; 	c #FACB9B",
"> 	c #FFDDAE",
", 	c #F5AD65",
"' 	c #EB793A",
") 	c #EF8F4C",
"! 	c #F09653",
"~ 	c #EB8D7A",
"{ 	c #F2C08A",
"] 	c #F2CE9A",
"^ 	c #FEDDAE",
"/ 	c #B7837A",
"( 	c #9F3600",
"_ 	c #EBBE7F",
": 	c #F6CE8C",
"< 	c #DFAA65",
"[ 	c #FBDBA9",
"} 	c #B76E3A",
"| 	c #C6864C",
"1 	c #F5D6A6",
"2 	c #CD9053",
"3 	c #D17765",
"4 	c #D04800",
"5 	c #E67234",
"6 	c #EB7A3B",
"7 	c #D5743B",
"8 	c #C8713B",
"9 	c #EA7839",
"0 	c #BE4100",
"a 	c #973200",
"b 	c #E16A2D",
"c 	c #EC7A3B",
"d 	c #B26D3B",
"e 	c #D65517",
"f 	c #722500",
"g 	c #DA5C20",
"h 	c #AD6C3B",
"i 	c #DC6023",
"j 	c #872C00",
"k 	c #C84600",
"l 	c #B73F00",
"m 	c #D24900",
"n 	c #A73900",
"o 	c #E75100",
"p 	c #7F2900",
"q 	c #903000",
"r 	c #963200",
"s 	c #996C65",
"t 	c #852C00",
"u 	c #732500",
"v 	c #692100",
"w 	c #792700",
"x 	c #5F1D00",
"y 	c #862C00",
"z 	c #561900",
"A 	c #471400",
"B 	c #511700",
"C 	c #551900",
"D 	c #EA8C7A",
"E 	c #E55100",
"F 	c #983300",
"G 	c #7B2800",
"H 	c #E14F00",
"I 	c #B13D00",
"J 	c #CF4800",
"K 	c #B84000",
"L 	c #BE4200",
"M 	c #B53E00",
"N 	c #993300",
"O 	c #7C2900",
"P 	c #E25000",
"Q 	c #B23D00",
"R 	c #D14900",
"S 	c #BA4000",
"T 	c #BF4200",
"U 	c #B63E00",
"V 	c #AB817A",
"W 	c #8C2E00",
"X 	c #762600",
"Y 	c #832B00",
"Z 	c #661F00",
"` 	c #340C00",
" .	c #7A2700",
"..	c #8B2E00",
"+.	c #772600",
"@.	c #7C2800",
"#.	c #531800",
"$.	c #6D2200",
"%.	c #7D2900",
"&.	c #000000",
"*.	c #401200",
"=.	c #601E00",
"-.	c #EB8C7A",
";.	c #C94600",
">.	c #E75200",
",.	c #611E00",
"'.	c #9B6D66",
").	c #872D00",
"!.	c #581A00",
"~.	c #882D00",
"{.	c #571A00",
"].	c #682000",
"^.	c #782700",
"/.	c #360D00",
"(.	c #6A2100",
"_.	c #EA8B79",
":.	c #CD4700",
"<.	c #D27967",
"[.	c #8B2D00",
"}.	c #892D00",
"|.	c #973300",
"1.	c #8A2D00",
"2.	c #CE4800",
"3.	c #A13600",
"4.	c #BD4100",
"5.	c #A53800",
"6.	c #B68077",
"7.	c #8A2E00",
"8.	c #732400",
"9.	c #A03600",
"0.	c #2A0900",
"a.	c #411100",
"b.	c #672000",
"c.	c #E47E69",
"d.	c #C68277",
"e.	c #B83F00",
"f.	c #852B00",
"g.	c #B93F00",
"h.	c #782600",
"i.	c #310C00",
"j.	c #4C1500",
"k.	c #C07769",
"l.	c #8E2F00",
"m.	c #A63800",
"n.	c #A43700",
"o.	c #4B1500",
"p.	c #913000",
"q.	c #E98976",
"r.	c #AB736A",
"s.	c #9C3500",
"t.	c #651F00",
"u.	c #702300",
"v.	c #9A3400",
"w.	c #8D2F00",
"x.	c #3F1100",
"y.	c #FBCF9B",
"z.	c #F5C790",
"A.	c #FBD49D",
"B.	c #F5C78F",
"C.	c #FACD99",
"D.	c #E7B470",
"E.	c #E3AF68",
"F.	c #E2AB66",
"G.	c #D04900",
"H.	c #E1A35F",
"I.	c #E6B86F",
"J.	c #D14B03",
"K.	c #DA894B",
"L.	c #E4B26A",
"M.	c #E5B46C",
"N.	c #D87D41",
"O.	c #822A00",
"P.	c #D56E35",
"Q.	c #E5B56D",
"R.	c #FCCF9B",
"S.	c #F9D29A",
"T.	c #F9CB96",
"U.	c #F7C992",
"V.	c #E85C12",
"W.	c #F6B26B",
"X.	c #F8B267",
"Y.	c #E65404",
"Z.	c #F19854",
"`.	c #EE8B49",
" +	c #E85D14",
".+	c #F7B26A",
"++	c #F7B36B",
"@+	c #E7AB65",
"#+	c #6B2200",
"$+	c #DEAD67",
"%+	c #7D2C04",
"&+	c #4F1700",
"*+	c #C18F54",
"=+	c #B27E49",
"-+	c #A26B3B",
";+	c #F6B169",
">+	c #F7B267",
",+	c #8B380F",
"'+	c #F9C27D",
")+	c #F8C58B",
"!+	c #ECC289",
"~+	c #F4C489",
"{+	c #DBA05F",
"]+	c #E8AC65",
"^+	c #F7B167",
"/+	c #F2B067",
"(+	c #EFAF67",
"_+	c #F6B86D",
":+	c #7E2900",
"<+	c #702400",
"[+	c #D69C5B",
"}+	c #EBAF67",
"|+	c #F8B76C",
"1+	c #A56334",
"2+	c #652000",
"3+	c #B77A44",
"4+	c #F8B66B",
"5+	c #EAAE67",
"6+	c #F8B469",
"7+	c #C0834A",
"8+	c #8C3A11",
"9+	c #FAC37F",
"0+	c #F5C286",
"a+	c #EEC58D",
"b+	c #F3C388",
"c+	c #DA9F5E",
"d+	c #9E3500",
"e+	c #D34A00",
"f+	c #9D3500",
"g+	c #D44A00",
"h+	c #E45000",
"i+	c #CC4700",
"j+	c #C74500",
"k+	c #8F2F00",
"l+	c #953200",
"m+	c #B63F00",
"n+	c #5D1C00",
"o+	c #541900",
"p+	c #5E1C00",
"q+	c #4B1600",
"r+	c #6E2300",
"s+	c #DC4D00",
"t+	c #DB4D00",
"u+	c #A23600",
"v+	c #A93900",
"w+	c #AE3B00",
"x+	c #722400",
"y+	c #842B00",
"z+	c #6F2300",
"A+	c #5A1B00",
"B+	c #6C2200",
"C+	c #712400",
"D+	c #5C1B00",
"E+	c #491400",
"F+	c #E24F00",
"G+	c #923000",
"H+	c #641F00",
"I+	c #7D2800",
"J+	c #A93A00",
"K+	c #BB4000",
"L+	c #7B2700",
"M+	c #4D1600",
"N+	c #AD3B00",
"O+	c #9B3400",
"P+	c #AA3A00",
"Q+	c #933100",
"R+	c #020000",
"S+	c #5B1B00",
"T+	c #511800",
"U+	c #481400",
"V+	c #923100",
"W+	c #5C1C00",
"X+	c #882C00",
"Y+	c #C04200",
"Z+	c #752600",
"`+	c #4E1700",
" @	c #682100",
".@	c #350D00",
"+@	c #4A1500",
"@@	c #4E1600",
"#@	c #742500",
"$@	c #2C0A00",
"%@	c #3A0E00",
"&@	c #5E1D00",
"*@	c #E04F00",
"=@	c #993400",
"-@	c #CD4800",
";@	c #C34400",
">@	c #B33D00",
",@	c #943100",
"'@	c #611D00",
")@	c #451300",
"!@	c #6F2400",
"~@	c #641E00",
"{@	c #AC3B00",
"]@	c #C54500",
"^@	c #AE3C00",
"/@	c #521800",
"(@	c #712300",
"_@	c #A83900",
":@	c #C04300",
"<@	c #AF3C00",
"                                                                                                      ",
"                    . + @         # + + + + $           % + + + &           * + +                     ",
"                    = - ;         > - - - - ,           ' - - - )           ! - -                     ",
"                    ~ - {         ] - - - - ,           ' - - - )           ! - -                     ",
"                    = - ;         ^ - - - - ,           ' - - - )           ! - -                     ",
"                    / ( _         : ( ( ( ( <         [ } ( ( ( | 1         2 ( (                     ",
"                    3 4 5 6 7 8 6 9 4 0 a 4 b 6 c d 6 6 e 4 f 4 g 6 6 h 6 6 i 4 j                     ",
"                    ~ - - - k l - - - m n - - - o a - - - - p - - - - q - - - - r                     ",
"                    s t t t u v t t t w x t t t y z t t t t A t t t t B t t t t C                     ",
"                    D E F E E E E G E E E E F H E E E I J E E E K L E E E 4 M E E                     ",
"                    = - N - - - - O - - - - N P - - - Q R - - - S T - - - R U - -                     ",
"                    V W X W Y Z Z ` Z Z  .W X ..W +.W @.t W v Z B #.Z $.W t %.W X                     ",
"                    = - - - k &.&.&.&.&.n - - - o a - - - - *.&.&.&.&.=.- - - - r                     ",
"                    -.o o o ;.&.&.&.&.&.n o o o >.F o o o o *.&.&.&.&.,.o o o o r                     ",
"                    '.).!.).~.{.&.&.&.&.,.).!.t ).~.).]. .).^.&.&.&.&./.).G (.).~.                    ",
"                    _.- N - - a &.&.&.&.n - N P - - - Q R - :.&.&.&.&.=.- R U - -                     ",
"                    <.R [.R R }.&.&.&.&.|.R 1.2.R R R 3.4.R S &.&.&.&.{.R 0 5.R R                     ",
"                    6.( ( ( 7.&.&.&.&.&.8.( ( ( 9.].( ( ( ( 0.&.&.&.&.a.( ( ( ( b.                    ",
"                    c.- - - k &.&.&.&.&.n - - - o a - - - - *.&.&.&.&.=.- - - - r                     ",
"                    d.e.e.e.9.&.&.&.&.&.f.e.e.e.g.h.e.e.e.e.i.&.&.&.&.j.e.e.e.e.+.                    ",
"                    k.e.w e.e.h.&.&.&.&.f.e.w M e.e.e.l.m.e.n.&.&.&.&.o.e.n p.e.e.                    ",
"                    q.- N - - a &.&.&.&.n - N P - - - Q R - :.&.&.&.&.=.- R U - -                     ",
"                    r.s.Z s.s.t.&.&.&.&.u.s.Z v.s.s.s.h.w.s...&.&.&.&.x.s.l. .s.s.                    ",
"y.z.          A.B.C.D.E.F.G.M m.G.H.E.E.E.E.I.J.R }.G.K.L.E.E.E.M.N.G.O.G.P.Q.E.E.B.R.          S.T.U.",
"- V.          W.- - - - , - k l - X.- - - - , Y.o a - Z.' - - - ) `.- q - 6 ! - - -  +          .+- - ",
"- V.          ++- - - - @+@.#+,.@.$+- - - - , %+@.&+@.*+' - - - ) =+@.o.@.-+! - - -  +          ;+- - ",
"- V.          W.- - - - , - - - - >+- - - - , Y.- - - Z.' - - - ) `.- - - 6 ! - - -  +          .+- - ",
"- V.          ++- - - - , - - - - X.- - - - , Y.- - - Z.' - - - ) `.- - - 6 ! - - -  +          ;+- - ",
"y ,+'+)+!+~+)+{+y X %.y ]+^+/+(+^+_+y :+<+y [+^+^+}+^+|+1+y 2+y 3+4+^+5+^+6+7+y #+y 8+9+0+a+b+)+c+y X ",
"- - - - d+e+- - - e.2.- - - k l - - - m n - - - o a - - - - p - - - - q - - - - r - - - - f+g+- - - e.",
"h+h+h+h+f+m h+h+h+U i+h+h+h+j+U h+h+h+G.m.h+h+h+E r h+h+h+h+:+h+h+h+h+k+h+h+h+h+l+h+h+h+h+s.e+h+h+h+m+",
"q }.n+q q q q o+q q q q p+q q q q q+q q q q p+w.q q q r+O.q q q u +.q q q O.<+q q q ~.n+q q q q z q q ",
"- s+F - - - - 7.- - - - N - - - - O - - - - N P - - - Q R - - - S T - - - R U - - - t+F - - - - W - - ",
"R k 1.R R R R %.R R R R [.R R R R <+R R R R 1.2.R R R u+0 R R R v+w+R R R L 5.R R R j+1.R R R R p R R ",
"n n n n x+N n n n f.l+n n n p.y+n n n F ^.n n 7.&.&.&.z+n n A+n n n n b.n n n n B+n n n n C+v.n n n f.",
"- - - - d+e+- - - e.2.- - - k l - - - m n h+n D+&.&.&.E+q F+p - - - - q - - - - r - - - - f+g+- - - e.",
"e.e.e.e.%.v+e.e.e.G+n.e.e.e.9.G+e.e.e.n f.m.&.&.&.&.&.&.&.w.H+e.e.e.e.x+e.e.e.e.+.e.e.e.e.I+J+e.e.e.G+",
"K+Q L+K+K+K+K+z+K+K+K+K+G K+K+K+K+H+K+K+K+M+&.&.&.&.&.&.&.&.N+K+r O+K+K+K+P+Q+K+K+K+I L+K+K+K+K+C+K+K+",
"- s+F - - - - 7.- - - - N - - - - O - - 5.R+&.&.&.&.&.&.&.&.u.- S T - - - R U - - - t+F - - - - W - - ",
"v.Q+t.v.v.v.v.S+v.v.v.v.t.v.v.v.v.T+v.v.$.&.&.&.&.&.&.&.&.&.U+v.@.p v.v.v.W w v.v.v.V+t.v.v.v.v.W+v.v.",
"G.G.G.G.k+T G.G.G.m.S G.G.G.M m.G.G.G.L &.&.&.&.&.&.&.&.&.&.H+G.G.G.G.O.G.G.G.G.X+R G.G.G.l.Y+G.G.G.m.",
"- - - - d+e+- - - e.2.- - - k l - - - m &.&.&.&.&.&.&.&.&.&.z+- - - - q - - - - r - - - - f+g+- - - e.",
"Z+Z+X Z+`+#+Z+X Z+W+ @Z+X Z+2+W+Z+X Z+(.&.&.&.&.&.&.&.&.&.&..@Z+Z+Z+Z+A Z+Z+Z+Z++@Z+Z+X Z+@@B+Z+X Z+W+",
"- s+F - - - - 7.- - - - N - - - - O - - 5.&.&.&.&.&.&.&.&.&.z+- S T - - - R U - - - t+F - - - - W - - ",
"- s+F - - - - 7.- - - - N - - - - O - - 5.&.&.&.&.&.&.&.&.&.z+- S T - - - R U - - - t+F - - - - W - - ",
"%.@.#@%.,.X %.8.%.#+u %.#@%.C+#+%.C+%.Z+$@&.&.&.&.&.&.&.&.&.%@%.+.^.%.W+%.G +.%.&@:+@.#@%.,.X %.8.%.#+",
"- - - - d+e+- - - e.2.- - - k l - - - m &.&.&.&.&.&.&.&.&.&.z+- - - - q - - - - r - - - - f+g+- - - e.",
"*@*@*@*@=@-@*@*@*@Q k *@*@*@;@Q *@*@*@i+&.&.&.&.&.&.&.&.&.&.B+*@*@*@*@W *@*@*@*@G+*@*@*@*@N 2.*@*@*@>@",
",@l.'@,@,@,@,@{.,@,@,@,@'@,@,@,@,@@@,@,@v &.&.&.&.&.&.&.&.&.)@,@+. .,@,@,@y #@,@,@,@w.'@,@,@,@,@!.,@,@",
"- s+F - - - - 7.- - - - N - - - - O - - 5.&.&.&.&.&.&.&.&.&.z+- S T - - - R U - - - t+F - - - - W - - ",
"4 j+}.4 4 4 4 @.4 4 4 4 1.4 4 4 4 !@4 4 l+&.&.&.&.&.&.&.&.&.~@4 n {@4 4 4 4.n.4 4 4 ]@}.4 4 4 4 :+4 4 ",
"^@^@^@^@+.9.^@^@^@7.O+^@^@^@|.1.^@^@^@d+&.&.&.&.&.&.&.&.&.&./@^@^@^@^@B+^@^@^@^@(@^@^@^@^@X 9.^@^@^@..",
"- - - - d+e+- - - e.2.- - - k l - - - m &.&.&.&.&.&.&.&.&.&.z+- - - - q - - - - r - - - - f+g+- - - e.",
"e.e.e.e.:+v+e.e.e.Q+5.e.e.e.9.G+e.e.e._@&.&.&.&.&.&.&.&.&.&.!.e.e.e.e.x+e.e.e.e.+.e.e.e.e.I+P+e.e.e.Q+",
":@e.p :@:@:@:@u :@:@:@:@p :@:@:@:@b.:@:@}.&.&.&.&.&.&.&.&.&.D+:@O+( :@:@:@<@|.:@:@:@l p :@:@:@:@#@:@:@",
"- s+F - - - - 7.- - - - N - - - - O - - 5.&.&.&.&.&.&.&.&.&.z+- S T - - - R U - - - t+F - - - - W - - ",
"N V+~@N N N N A+N N N N H+N N N N B N N $.&.&.&.&.&.&.&.&.&.U+N L+p N N N ..h.N N N p.~@N N N N D+N N "};
