/* XPM */
static char * grass_xpm[] = {
"51 57 3 1",
" 	c #52A210",
".	c #94D342",
"+	c #317100",
"                                           .. ..   ",
"                                           .. ..   ",
"                                                   ",
"                                                   ",
"             ...         +++++       +             ",
"      .... ...             +++++   +++             ",
"      .... ...             +++++   +++             ",
"   ...  ..... ....           +++ +++++             ",
"   ...  ..... ....           +++ +++++             ",
"     ...  .  ...        ++++++   ++++ ...  ..      ",
"     ...  .  ...        ++++++   ++++ ...  ..      ",
"      ..                 +++++++        .  ..      ",
"                                +++  ........ ...  ",
"                                +++  ........ ...  ",
"        +++++      +++          +++++ .. .......   ",
"        +++++      +++          +++++ .. .......   ",
"          ++++  ++++++           ++++    ..++.     ",
"          ++++  ++++++           ++++    ..++.     ",
"           +++  +++++            ++        +++++ ++",
"           +++  +++++            ++        +++++ ++",
"              ++++                           ++++++",
"+++        +++  ++++++..     .                +++++",
"+++        +++  ++++++..     .                +++++",
"++      ++++++    ++++...  ...  ...        +++++ ++",
"++      ++++++    ++++...  ...  ...        +++++ ++",
"          +++           .........          +++     ",
"          +++           .........          +++     ",
"                   ...  ...  ... ....      ++.     ",
"                     ... ..  .  ...          ...   ",
"                     ... ..  .  ...          ...   ",
"  ...                 ...       .       ...   ...  ",
"  ...                 ...       .       ...   ...  ",
"...                                  .   .... ...  ",
"...                                  .   .... ...  ",
".. ...  ++      +++++                 ...  ........",
".. ...  ++      +++++                 ...  ........",
"  ...   +++   +++++                ++ .......... ..",
"  .     +++++ ++++               ++++   ...   ..   ",
"  .     +++++ ++++               ++++   ...   ..   ",
"          +++   ++++++     +++++ ++++ +++++        ",
"          +++   ++++++     +++++ ++++ +++++        ",
"              +++++++        ++++  ++++++          ",
"              +++++++        ++++  ++++++          ",
"           +++                +++    +++           ",
"           +++                +++    +++           ",
"     .    .+++  ...             ++++++             ",
"      ..  ... ....            +++++++++++          ",
"      ..  ... ....            +++++++++++          ",
"  ... ..........  ...        ++++    +++           ",
"  ... ..........  ...        ++++    +++           ",
"   ................          +                     ",
"   ................          +                     ",
"     ...  .  ..... ...                       .     ",
"     .        ..   ..                   ...  .  .  ",
"     .        ..   ..                   ...  .  .  ",
"                                         ........  ",
"                                         ........  "};
